<svg xmlns="http://www.w3.org/2000/svg" width="144.713" height="144.715" viewBox="0 0 144.713 144.715">
  <g id="mother" transform="translate(-0.003 0)">
    <path id="Path_136" data-name="Path 136" d="M284.724,69.811H271.966a3.521,3.521,0,0,1-3.511-3.511L266.7,36.547S263.859,11.9,278.594,8.663c0,0,5.991-11.659,25.179-7.923a7.447,7.447,0,0,1,.769.224,29.17,29.17,0,0,1,11.946,7.2c10.449,10.4,8.348,22.683,8.61,24.211,0,8.535.135-.952-1.755,33.929a3.522,3.522,0,0,1-3.511,3.511H306.259" transform="translate(-191.158 -0.001)" fill="#252b2b"/>
    <path id="Path_137" data-name="Path 137" d="M286.94,69.875V65.7a22.081,22.081,0,0,1-13.218-19.119c0-.054-.011-.226-.012-.259-.011-.289-.019-.579-.019-.871,0-13.136-.008-12.339.01-12.555-.132-7.011.953-21.719,12.1-24.17,0,0,3.672-7.143,14.47-8.455-8.228-.9-17.879,1.54-21.683,8.455-9.943,2.185-12.335,14.293-12.1,24.415q.005.212.011.413c.058,1.876.194,3.056.194,3.056l1.756,29.753a3.522,3.522,0,0,0,3.511,3.511Z" transform="translate(-191.155 -0.065)" fill="#252b2b"/>
    <path id="Path_138" data-name="Path 138" d="M64.519,299.247l3.774-33.728c1.323-10.184.78-14.1,4.067-18.085a15.106,15.106,0,0,0-3.419-2.968l-.105-.026c-3.553-2.129-6.545-2.218-13.148-4.034h0l-6.752-3.232h0v-8.066a22.138,22.138,0,0,1-17.608.046h0l-.029,8.053h0l-6.724,3.2h0c-6.561,1.805-9.588,1.9-13.148,4.035l-.105.026a9.421,9.421,0,0,0-.928.65c-5.088,3.653-5.168,8.4-5.607,11.9L2.765,275.079h0C-.081,300.921.005,298.842.005,300.835c-.045,3.28,1.968,8.232,8.08,8.232h0c.567,0,63.792,0,64.275,0C66.884,308.97,64.039,304.793,64.519,299.247Z" transform="translate(-0.001 -164.351)" fill="#dd9a5e"/>
    <g id="Group_85" data-name="Group 85" transform="translate(0.003 64.803)">
      <path id="Path_139" data-name="Path 139" d="M7.284,334.121c-.049-2.849.547-2.819,5.01-49.06.467-3.825,1.626-6.951,4.963-9.537a19.591,19.591,0,0,0-5.833,2.213l-.105.026a9.477,9.477,0,0,0-.928.65c-5.088,3.653-5.168,8.4-5.607,11.9C4.748,290.638,0,332.734,0,334.131c-.045,3.28,1.968,8.232,8.08,8.232h7.28A7.783,7.783,0,0,1,7.284,334.121Z" transform="translate(-0.003 -262.451)" fill="#d38d54"/>
      <path id="Path_140" data-name="Path 140" d="M118,244.212V231.02a21.9,21.9,0,0,1-7.252-1.749l-.029,8.053h0Z" transform="translate(-79.426 -229.271)" fill="#d38d54"/>
    </g>
    <path id="Path_141" data-name="Path 141" d="M308.264,301.476c-5.142-45.532-4.852-44.247-5.312-46.472A12.629,12.629,0,0,0,297,246.7l-.1-.026a17.951,17.951,0,0,0-4.261-1.822l-14.825-3.691A1.91,1.91,0,0,1,277,239.4v-7.15a22.125,22.125,0,0,1-17.608-.037V239.4a1.91,1.91,0,0,1-.815,1.754c-12.541,3.341-15.33,3.263-19.086,5.512l-.1.026c-4.149,2.534-5.752,5.967-6.3,10.5l-4.955,44.28c-.5,5.741,2.547,9.819,8.025,9.819h64.091c6.113,0,8.125-4.952,8.08-8.232v-.01A15.519,15.519,0,0,0,308.264,301.476Z" transform="translate(-163.605 -166.58)" fill="#eab883"/>
    <path id="Path_142" data-name="Path 142" d="M235.348,333.362v-.01a15.358,15.358,0,0,1,.055-1.577l4.955-46.9c.53-4.344,2.009-7.775,6.181-10.423a23.734,23.734,0,0,0-7.051,2.516l-.1.026c-4.149,2.534-5.752,5.968-6.3,10.5l-4.955,44.28c-.5,5.741,2.547,9.819,8.025,9.819h7.28C237.315,341.593,235.3,336.641,235.348,333.362Z" transform="translate(-163.605 -196.878)" fill="#d8a373"/>
    <path id="Path_143" data-name="Path 143" d="M312.558,277.3c-2.337-20.742-2.236-20.5-2.607-22.3A12.645,12.645,0,0,0,304,246.694l-.1-.026a17.953,17.953,0,0,0-4.261-1.822l-14.825-3.69A1.91,1.91,0,0,1,284,239.4v-7.15h0v-.037a21.94,21.94,0,0,1-17.608,0v.037h0v7.15a1.91,1.91,0,0,1-.815,1.754c-12.541,3.341-15.33,3.263-19.086,5.512l-.1.026c-4.111,2.51-5.753,5.975-6.3,10.5l-2.25,20.106,14.183,1.488a1.427,1.427,0,0,1,1.277,1.492l-1.558,31.013h47.013L297.109,280.4a1.551,1.551,0,0,1,1.387-1.624Z" transform="translate(-170.604 -166.579)" fill="#c83232"/>
    <path id="Path_144" data-name="Path 144" d="M237.827,307.6l7.051.74,2.479-23.466c.529-4.343,2.009-7.775,6.181-10.423a24.056,24.056,0,0,0-7.051,2.517l-.1.026a12.628,12.628,0,0,0-5.948,8.309C239.977,287.508,240.064,287.99,237.827,307.6Z" transform="translate(-170.604 -196.877)" fill="#a82626"/>
    <path id="Path_145" data-name="Path 145" d="M75.892,264.938l-.105-.026c-3.561-2.133-6.6-2.233-13.1-4.023l.006-.012-6.752-3.232-.049.074c0-.009,0-.018,0-.027l-8.806,8.291L38.3,257.678l-6.724,3.2h0c-6.561,1.805-9.588,1.9-13.148,4.034l-.105.026c-4.149,2.533-5.752,5.969-6.3,10.5L9.768,295.55l13.911,1.46a1.661,1.661,0,0,1,1.485,1.735l-1.546,30.793H70.631L69,298.648a1.555,1.555,0,0,1,1.39-1.628l3.718-.39c2.726-22.618,1.929-24.648,5.232-28.691A20.016,20.016,0,0,0,75.892,264.938Z" transform="translate(-7.005 -184.822)" fill="#023cda"/>
    <path id="Path_146" data-name="Path 146" d="M19.3,285.061c.467-3.825,1.626-6.951,4.963-9.537a19.615,19.615,0,0,0-5.833,2.213l-.105.026a15.183,15.183,0,0,0-3.446,3c-3.525,4.315-2.566,7.718-5.109,27.612l7.2.755C16.945,309.36,17.255,306.261,19.3,285.061Z" transform="translate(-7.007 -197.648)" fill="#2356c7"/>
    <path id="Path_147" data-name="Path 147" d="M345.872,240.417l-5.937-1.478a1.91,1.91,0,0,1-.815-1.754v-8.024h0v-.037a21.953,21.953,0,0,1-17.608,0v.037h0v8.024a1.91,1.91,0,0,1-.815,1.754l-6.026,1.5A17.879,17.879,0,0,0,345.872,240.417Z" transform="translate(-225.727 -164.363)" fill="#eab883"/>
    <path id="SVGCleanerId_0" d="M44.139,35.189V27.6C44.139,5.258,69.4-7.668,87.517,4.955c14.214,9.924,11.507,24.518,11.819,30.234" transform="translate(-31.661 0)" fill="#4c4846"/>
    <g id="Group_86" data-name="Group 86" transform="translate(12.478 0)">
      <path id="SVGCleanerId_0_1_" d="M44.139,35.189V27.6C44.139,5.258,69.4-7.668,87.517,4.955c14.214,9.924,11.507,24.518,11.819,30.234" transform="translate(-44.139 0)" fill="#252b2b"/>
    </g>
    <path id="Path_148" data-name="Path 148" d="M74.489.141A27.62,27.62,0,0,0,44.139,27.6v7.59h5.5V27.6A27.6,27.6,0,0,1,74.489.141Z" transform="translate(-31.661 -0.003)" fill="#222929"/>
    <g id="Group_87" data-name="Group 87" transform="translate(11.105 31.899)">
      <path id="Path_149" data-name="Path 149" d="M226.833,118.616c0,3.181-3.079,5.759-6.877,5.759V112.858C223.754,112.858,226.833,115.436,226.833,118.616Z" transform="translate(-168.888 -112.858)" fill="#dd9a5e"/>
      <path id="Path_150" data-name="Path 150" d="M39.279,118.616c0,3.181,3.079,5.759,6.877,5.759V112.858C42.358,112.858,39.279,115.436,39.279,118.616Z" transform="translate(-39.279 -112.858)" fill="#dd9a5e"/>
    </g>
    <g id="Group_88" data-name="Group 88" transform="translate(11.1 35.07)">
      <path id="Path_151" data-name="Path 151" d="M219.956,127.245v5.176c3.8,0,6.877-2.578,6.877-5.759a4.989,4.989,0,0,0-.734-2.588A7.111,7.111,0,0,1,219.956,127.245Z" transform="translate(-168.884 -124.075)" fill="#d38d54"/>
      <path id="Path_152" data-name="Path 152" d="M40,124.075c-2.282,3.79.992,8.347,6.143,8.347v-5.176A7.111,7.111,0,0,1,40,124.075Z" transform="translate(-39.263 -124.075)" fill="#d38d54"/>
    </g>
    <path id="Path_153" data-name="Path 153" d="M102.669,76.476a3.156,3.156,0,0,0-3.651-3.143c-.41.064-.862.13-1.152.171a85.277,85.277,0,0,1-25.554-.171,3.153,3.153,0,0,0-3.651,3.143A9,9,0,0,1,65.1,83.711a6.648,6.648,0,0,1-1.533.866c0,14.3-.171,15.258.6,18.5a21.985,21.985,0,0,0,3.865,8.2c10.281,13.6,31.805,10.942,38.187-5.186,2.112-5.337,1.543-9.388,1.543-21.517C107.677,84.516,102.9,82.82,102.669,76.476Z" transform="translate(-45.587 -52.578)" fill="#edae6b"/>
    <path id="Path_154" data-name="Path 154" d="M71.709,106.726c-1.56-5.561-.694-8.958-.938-19.5a3.075,3.075,0,0,1,1.21-2.479,9.963,9.963,0,0,0,3.888-8.174,3.411,3.411,0,0,1,1.3-2.626c-1.051-.105-2.072-.226-3.015-.353-.549-.073-1.176-.163-1.8-.261A3.154,3.154,0,0,0,68.7,76.477a9,9,0,0,1-3.559,7.235,6.642,6.642,0,0,1-1.533.866c0,14.39-.008,13.646.021,14.355a22.073,22.073,0,0,0,16.642,20.45C79.851,119.07,73.463,112.984,71.709,106.726Z" transform="translate(-45.625 -52.579)" fill="#dd9a5e"/>
    <path id="Path_155" data-name="Path 155" d="M138.425,297.774V279.848l-2.184,2.056-2.184-2.066v17.936a2.184,2.184,0,0,0,4.368,0Z" transform="translate(-96.164 -200.743)" fill="#2356c7"/>
    <path id="Path_156" data-name="Path 156" d="M150.641,257.645l-8.857,8.339,4.781,4.818a2.153,2.153,0,0,0,3.224-.191l7.6-9.733Z" transform="translate(-101.707 -184.822)" fill="#dadada"/>
    <g id="Group_89" data-name="Group 89" transform="translate(40.077 72.823)">
      <path id="Path_157" data-name="Path 157" d="M154.041,259.273l-3.4-1.628-8.857,8.339,3.164,3.188Z" transform="translate(-141.784 -257.645)" fill="#ceccca"/>
      <path id="Path_158" data-name="Path 158" d="M161,305.775a2.156,2.156,0,0,0,1.263.153Z" transform="translate(-155.569 -292.171)" fill="#ceccca"/>
    </g>
    <path id="Path_159" data-name="Path 159" d="M93.388,257.763l8.781,8.305-4.781,4.818a2.153,2.153,0,0,1-3.224-.191l-7.6-9.733Z" transform="translate(-62.092 -184.907)" fill="#dadada"/>
    <path id="Path_160" data-name="Path 160" d="M104.173,266.036l3.026,3.22,3.164-3.188-8.78-8.305-3.6,1.686Z" transform="translate(-70.286 -184.907)" fill="#ceccca"/>
    <path id="Path_161" data-name="Path 161" d="M328.828,241.634V230.912a21.805,21.805,0,0,1-7.317-1.789c-.221,6.367.577,9.185-.815,9.816l-6.026,1.5a19.128,19.128,0,0,0,5.92,6.226l6.256-2.3S328.828,243.381,328.828,241.634Z" transform="translate(-225.727 -164.362)" fill="#d8a373"/>
    <path id="Path_162" data-name="Path 162" d="M333.969,100.209a2.33,2.33,0,0,1,2.223,2.326v1.671h0c-.006,2.967.2,5.848-.938,9.622a22.052,22.052,0,0,1-6.558,10.19c-13.707,12.206-35.731,2.992-36.664-15.453,0-.083,0,.024-.012-.259s-.019-.579-.019-.871V96.229h0V95.109a2.745,2.745,0,0,1,2.188-2.681,17.687,17.687,0,0,0,9.211-5.294,2.014,2.014,0,0,1,3.022.1C309.632,91.121,318.3,99.476,333.969,100.209Z" transform="translate(-209.466 -62.05)" fill="#f7cf9c"/>
    <path id="Path_163" data-name="Path 163" d="M301.566,127.225c-2.918-5.9-2.24-10.075-2.285-18.271v-8.529a17.145,17.145,0,0,1-5.092,1.993A2.744,2.744,0,0,0,292,105.1v12.327c0,.365.019.934.021.967s.031.539.052.8a22.108,22.108,0,0,0,25.663,20.028A22.11,22.11,0,0,1,301.566,127.225Z" transform="translate(-209.466 -72.04)" fill="#eab883"/>
    <g id="Group_90" data-name="Group 90" transform="translate(84.764 76.055)">
      <path id="Path_164" data-name="Path 164" d="M389.71,270.141l-4.259-1.06a18.2,18.2,0,0,1-15.608,9.162S389.8,298.2,389.71,270.141Z" transform="translate(-350.069 -269.081)" fill="#b72c2c"/>
      <path id="Path_165" data-name="Path 165" d="M299.884,270.141l4.259-1.06a18.2,18.2,0,0,0,15.608,9.162S299.8,298.2,299.884,270.141Z" transform="translate(-299.884 -269.081)" fill="#b72c2c"/>
    </g>
    <g id="Group_91" data-name="Group 91" transform="translate(84.962 81.715)">
      <path id="Path_166" data-name="Path 166" d="M310.762,289.814c-3.521,1.874-7.578,2.769-10.177-.707,2.068,21.1,19.669,3.5,19.669,3.5A17.54,17.54,0,0,1,310.762,289.814Z" transform="translate(-300.585 -289.106)" fill="#a82626"/>
      <path id="Path_167" data-name="Path 167" d="M379.335,289.814c3.521,1.874,7.578,2.769,10.177-.707-2.068,21.1-19.669,3.5-19.669,3.5A17.54,17.54,0,0,0,379.335,289.814Z" transform="translate(-350.268 -289.106)" fill="#a82626"/>
    </g>
    <path id="Path_168" data-name="Path 168" d="M222.168,258.77a19.277,19.277,0,0,0-31.488,1.841c-4.069,6.573-2.534,12.562-2.871,14.395h38.523C226.209,271.242,227.247,265.168,222.168,258.77Z" transform="translate(-134.711 -180.398)" fill="#9f6422"/>
    <path id="Path_169" data-name="Path 169" d="M193.034,266.274c.086-.365.29-1.086.3-1.116a19.27,19.27,0,0,1,16.09-13.541,19.259,19.259,0,0,0-18.744,8.991c-4.069,6.573-2.533,12.561-2.871,14.395h4.707C192.52,270.983,192.365,269.109,193.034,266.274Z" transform="translate(-134.71 -180.394)" fill="#8e551c"/>
    <path id="Path_170" data-name="Path 170" d="M320.609,365.78c-1.692-5.25-3.886-8.527-5.559-10.236a7.021,7.021,0,0,1-3.828,1.871c2.794,4.029,2.182,8.05,2.043,10.443a1.658,1.658,0,0,0,1.989,1.726l3.566-.74A2.385,2.385,0,0,0,320.609,365.78Z" transform="translate(-223.254 -255.051)" fill="#996123"/>
    <path id="Path_171" data-name="Path 171" d="M314.484,329.624c0,3.084-2.985,5.583-6.667,5.583V324.041C311.5,324.041,314.484,326.54,314.484,329.624Z" transform="translate(-220.811 -232.452)" fill="#efd0a3"/>
    <path id="Path_172" data-name="Path 172" d="M167.268,365.78c1.692-5.25,3.886-8.527,5.559-10.236a7.021,7.021,0,0,0,3.828,1.871c-2.794,4.029-2.182,8.05-2.043,10.443a1.658,1.658,0,0,1-1.99,1.726l-3.566-.74A2.386,2.386,0,0,1,167.268,365.78Z" transform="translate(-119.905 -255.051)" fill="#8e551c"/>
    <path id="Path_173" data-name="Path 173" d="M180.589,329.624c0,3.084,2.985,5.583,6.667,5.583V324.041C183.574,324.041,180.589,326.54,180.589,329.624Z" transform="translate(-129.544 -232.452)" fill="#efd0a3"/>
    <g id="Group_92" data-name="Group 92" transform="translate(51.04 94.781)">
      <path id="Path_174" data-name="Path 174" d="M307.816,338.525v4.782c4.941,0,8.1-4.315,6.026-7.974A6.859,6.859,0,0,1,307.816,338.525Z" transform="translate(-271.851 -335.333)" fill="#e2bf91"/>
      <path id="Path_175" data-name="Path 175" d="M181.218,335.333c-2.078,3.665,1.1,7.974,6.026,7.974v-4.782A6.86,6.86,0,0,1,181.218,335.333Z" transform="translate(-180.571 -335.333)" fill="#e2bf91"/>
    </g>
    <path id="Path_176" data-name="Path 176" d="M217.764,433.3l-1.519-13.574a8.625,8.625,0,0,0-4.179-6.96l-.07-.017c-2.479-1.485-4.278-1.423-12.651-3.654-.926-.419-.388-2.215-.54-6.776a14.658,14.658,0,0,1-11.672-.025c-.148,4.455.389,6.38-.54,6.8-8.357,2.226-10.169,2.167-12.651,3.654l-.07.017a8.369,8.369,0,0,0-3.943,5.507c-.3,1.432-.219,1.549-1.756,15.027Z" transform="translate(-120.637 -288.589)" fill="#efd0a3"/>
    <path id="Path_177" data-name="Path 177" d="M168.171,451.525h49.591l-1.519-13.574a8.633,8.633,0,0,0-4.179-6.96l-.07-.017c-2.458-1.473-4.44-1.476-11.077-3.262v1.756a7.9,7.9,0,0,1-.819,3.513c-.086.175-.227.434-.361.65l-.1.157c-.139.213-.287.417-.432.6-.069.087-.162.2-.235.281l-.035.04c-.047.053-.094.106-.142.158l-.016.017,0,0-.022.023c-.056.059-.113.117-.171.174l-.057.057q-.112.109-.228.214l-.067.059c-.048.043-.1.084-.148.127l-.023.02-.09.073c-.052.042-.1.083-.156.123l-.1.076-.155.113-.078.054-.026.018-.164.109-.025.016-.076.049c-.047.029-.094.057-.141.085L197,436.3l-.021.012-.062.037q-.137.078-.276.151l-.038.019-.013.006-.047.023c-.062.031-.124.062-.187.092l-.1.046c-.063.028-.126.056-.189.083l-.116.047-.183.071-.12.044c-.062.022-.125.044-.189.064l-.094.03-.023.008-.053.016-.155.045-.076.021-.025.007q-.156.042-.315.077l-.047.01-.141.029q-.188.037-.38.065-.383.056-.777.074l-.094,0-.051,0-.137,0h-.19l-.137,0-.051,0-.094,0q-.394-.018-.777-.074-.192-.028-.38-.065l-.141-.029-.047-.01c-.106-.023-.211-.049-.315-.077l-.025-.007-.076-.021-.154-.045-.055-.016-.023-.008-.094-.03-.189-.064-.12-.044c-.061-.023-.123-.047-.183-.071l-.116-.047c-.064-.027-.127-.055-.189-.083l-.1-.046c-.063-.029-.125-.06-.187-.092l-.047-.023-.013-.006-.038-.019q-.14-.073-.276-.151l-.062-.037-.021-.012-.047-.028c-.047-.028-.095-.056-.141-.085l-.076-.049-.025-.016a7.932,7.932,0,0,1-3.291-4.365,13.344,13.344,0,0,1-.336-4.062l-1.682.419c-5.275,1.44-7.1,1.447-9.452,2.858l-.07.017a8.4,8.4,0,0,0-3.943,5.507C169.63,437.927,169.689,438.206,168.171,451.525Z" transform="translate(-120.636 -306.81)" fill="#f9b938"/>
    <g id="Group_93" data-name="Group 93" transform="translate(47.536 122.046)">
      <path id="Path_178" data-name="Path 178" d="M173.617,445.908c.607-5.475.181-10.07,4.787-13.027l.07-.018a11.047,11.047,0,0,1,1.636-.838q.158-.125.306-.228c-2.33.666-4.265.793-6.475,2.116l-.07.017a8.371,8.371,0,0,0-3.954,5.567c-.292,1.436-.225,1.635-1.745,14.968h4.534Z" transform="translate(-168.172 -431.798)" fill="#eaa224"/>
      <path id="Path_179" data-name="Path 179" d="M202.147,490.237l.2-6.32a2.184,2.184,0,0,0-4.366-.14l-.207,6.46h4.37Z" transform="translate(-189.409 -467.568)" fill="#eaa224"/>
      <path id="Path_180" data-name="Path 180" d="M302.607,490.237l-.207-6.46a2.184,2.184,0,0,0-4.366.141l.2,6.32Z" transform="translate(-261.328 -467.569)" fill="#eaa224"/>
    </g>
    <path id="Path_181" data-name="Path 181" d="M234.076,413.7a2.856,2.856,0,0,0,1.785-2.665v-7.509a14.568,14.568,0,0,1-5.839-1.223c-.148,4.456.389,6.38-.54,6.8l-1.517.378a13.357,13.357,0,0,0,.336,4.062,8.043,8.043,0,0,0,.852,1.883l4.923-1.726Z" transform="translate(-163.527 -288.59)" fill="#e2bf91"/>
    <path id="Path_182" data-name="Path 182" d="M217.718,305.392c-3.287,5.467-10.264,4.626-12.742,4.126a.749.749,0,0,0-.9.735h0c0,8.9-.272,10.853.622,13.808a14.649,14.649,0,0,0,28.671-4.237v-9.571h0a.749.749,0,0,0-.9-.735c-2.477.5-9.455,1.341-12.742-4.126A1.177,1.177,0,0,0,217.718,305.392Z" transform="translate(-146.368 -218.664)" fill="#fce3bb"/>
    <path id="Path_183" data-name="Path 183" d="M211.58,334.227c-.382-2.2-.137-3.056-.216-12.71a17.179,17.179,0,0,1-6.384-.116.749.749,0,0,0-.9.735c0,9.032-.266,10.87.622,13.808A14.653,14.653,0,0,0,222.37,345.9,14.659,14.659,0,0,1,211.58,334.227Z" transform="translate(-146.371 -230.547)" fill="#efd0a3"/>
  </g>
</svg>
