<svg id="teamwork" xmlns="http://www.w3.org/2000/svg" width="46.744" height="46.744" viewBox="0 0 46.744 46.744">
  <path id="Path_11" data-name="Path 11" d="M216,32h1.558v1.558H216Zm0,0" transform="translate(-194.965 -28.884)" fill="#252b2b"/>
  <path id="Path_12" data-name="Path 12" d="M248,32h1.558v1.558H248Zm0,0" transform="translate(-223.849 -28.884)" fill="#252b2b"/>
  <path id="Path_13" data-name="Path 13" d="M216,64h1.558v1.558H216Zm0,0" transform="translate(-194.965 -57.767)" fill="#252b2b"/>
  <path id="Path_14" data-name="Path 14" d="M248,64h1.558v1.558H248Zm0,0" transform="translate(-223.849 -57.767)" fill="#252b2b"/>
  <path id="Path_15" data-name="Path 15" d="M216,96h1.558v1.558H216Zm0,0" transform="translate(-194.965 -86.651)" fill="#252b2b"/>
  <path id="Path_16" data-name="Path 16" d="M248,96h1.558v1.558H248Zm0,0" transform="translate(-223.849 -86.651)" fill="#252b2b"/>
  <path id="Path_17" data-name="Path 17" d="M216,128h1.558v1.558H216Zm0,0" transform="translate(-194.965 -115.535)" fill="#252b2b"/>
  <path id="Path_18" data-name="Path 18" d="M248,128h1.558v1.558H248Zm0,0" transform="translate(-223.849 -115.535)" fill="#252b2b"/>
  <path id="Path_19" data-name="Path 19" d="M216,160h1.558v1.558H216Zm0,0" transform="translate(-194.965 -144.419)" fill="#252b2b"/>
  <path id="Path_20" data-name="Path 20" d="M248,160h1.558v1.558H248Zm0,0" transform="translate(-223.849 -144.419)" fill="#252b2b"/>
  <path id="Path_21" data-name="Path 21" d="M312,160h1.558v1.558H312Zm0,0" transform="translate(-281.616 -144.419)" fill="#252b2b"/>
  <path id="Path_22" data-name="Path 22" d="M312,192h1.558v1.558H312Zm0,0" transform="translate(-281.616 -173.302)" fill="#252b2b"/>
  <path id="Path_23" data-name="Path 23" d="M312,224h1.558v1.558H312Zm0,0" transform="translate(-281.616 -202.186)" fill="#252b2b"/>
  <path id="Path_24" data-name="Path 24" d="M312,256h1.558v1.558H312Zm0,0" transform="translate(-281.616 -231.07)" fill="#252b2b"/>
  <path id="Path_25" data-name="Path 25" d="M152,160h1.558v1.558H152Zm0,0" transform="translate(-137.198 -144.419)" fill="#252b2b"/>
  <path id="Path_26" data-name="Path 26" d="M152,192h1.558v1.558H152Zm0,0" transform="translate(-137.198 -173.302)" fill="#252b2b"/>
  <path id="Path_27" data-name="Path 27" d="M152,224h1.558v1.558H152Zm0,0" transform="translate(-137.198 -202.186)" fill="#252b2b"/>
  <path id="Path_28" data-name="Path 28" d="M152,256h1.558v1.558H152Zm0,0" transform="translate(-137.198 -231.07)" fill="#252b2b"/>
  <path id="Path_29" data-name="Path 29" d="M45.965,7.791h-.779V5.453a.779.779,0,0,0-.779-.779h-8.57a.779.779,0,0,0-.779.779V7.791h-.779a.779.779,0,0,0-.779.779v3.9H31.942V5.453a.779.779,0,0,0-.779-.779H28.826V.779A.779.779,0,0,0,28.046,0H18.7a.779.779,0,0,0-.779.779v3.9H15.581a.779.779,0,0,0-.779.779v7.012H13.244V8.57a.779.779,0,0,0-.779-.779h-.779V5.453a.779.779,0,0,0-.779-.779H2.337a.779.779,0,0,0-.779.779V7.791H.779A.779.779,0,0,0,0,8.57V25.709H1.558V9.349H11.686V19.477h1.558V14.023h4.674V18.7h1.558V1.558h7.791V18.7h1.558V14.023H33.5v9.349h1.558V9.349H45.186v16.36h1.558V8.57A.779.779,0,0,0,45.965,7.791Zm-42.849,0V6.233h7.012V7.791ZM16.36,12.465V6.233h1.558v6.233Zm12.465,0V6.233h1.558v6.233Zm7.791-4.674V6.233h7.012V7.791Zm0,0" transform="translate(0)" fill="#252b2b"/>
  <path id="Path_30" data-name="Path 30" d="M376,112h3.116v1.558H376Zm0,0" transform="translate(-339.384 -101.093)" fill="#252b2b"/>
  <path id="Path_31" data-name="Path 31" d="M424,112h3.116v1.558H424Zm0,0" transform="translate(-382.709 -101.093)" fill="#252b2b"/>
  <path id="Path_32" data-name="Path 32" d="M376,144h3.116v1.558H376Zm0,0" transform="translate(-339.384 -129.977)" fill="#252b2b"/>
  <path id="Path_33" data-name="Path 33" d="M424,144h3.116v1.558H424Zm0,0" transform="translate(-382.709 -129.977)" fill="#252b2b"/>
  <path id="Path_34" data-name="Path 34" d="M42.849,199.791h-.02a3.857,3.857,0,0,0,.8-2.337V195.9a3.9,3.9,0,0,0-7.791,0v1.558a3.857,3.857,0,0,0,.8,2.337h-.02a4.32,4.32,0,0,0-3.969,2.608l-1.1,2.331-1.091-2.316a4.317,4.317,0,0,0-3.973-2.622h-.02a3.857,3.857,0,0,0,.8-2.337V195.9a3.9,3.9,0,1,0-7.791,0v1.558a3.857,3.857,0,0,0,.8,2.337h-.02a4.321,4.321,0,0,0-3.962,2.6l-1.1,2.337L14.1,202.407a4.318,4.318,0,0,0-3.974-2.616h-.02a3.857,3.857,0,0,0,.8-2.337V195.9a3.9,3.9,0,1,0-7.791,0v1.558a3.857,3.857,0,0,0,.8,2.337H3.9a3.9,3.9,0,0,0-3.9,3.9V210.7a.779.779,0,0,0,.779.779H3.116v7.012H0v1.558H46.744v-1.558H43.628v-7.012h2.337a.779.779,0,0,0,.779-.779v-7.012a3.9,3.9,0,0,0-3.9-3.9ZM37.4,197.453V195.9a2.337,2.337,0,0,1,4.674,0v1.558a2.337,2.337,0,1,1-4.674,0Zm-16.36,0V195.9a2.337,2.337,0,0,1,4.674,0v1.558a2.337,2.337,0,1,1-4.674,0Zm-16.36,0V195.9a2.337,2.337,0,0,1,4.674,0v1.558a2.337,2.337,0,1,1-4.674,0Zm3.116,21.035V210.7H6.233v7.791H4.674v-14.8H3.116v6.233H1.558v-6.233A2.337,2.337,0,0,1,3.9,201.349h6.233a2.771,2.771,0,0,1,2.552,1.7l3.232,6.869H13.726l-2.9-5.8a.779.779,0,0,0-1.48.348v14.023Zm9.559-7.043c.022-.007.043-.016.064-.025a.788.788,0,0,0,.127-.059,1.069,1.069,0,0,0,.161-.132.794.794,0,0,0,.054-.065c.015-.016.029-.033.042-.05s.017-.041.028-.06.019-.026.026-.041l1.625-3.657v11.131h-8.57V207.765l1.64,3.281a.779.779,0,0,0,.7.431h3.9a.759.759,0,0,0,.21-.031Zm6.8,7.043v-7.012H22.593v7.012H21.035v-14.8a.779.779,0,0,0-1.491-.316l-2.424,5.453-1.066-2.266,1.662-3.533a2.765,2.765,0,0,1,1.026-1.224,2.718,2.718,0,0,1,1.515-.452h6.233a2.77,2.77,0,0,1,2.551,1.7l1.651,3.506-1.107,2.354-2.393-4.794a.779.779,0,0,0-1.48.348v14.023Zm10.061-7.475,1.625-3.657v11.131h-8.57V207.765l1.636,3.281a.345.345,0,0,0,.021.03c.006.01.01.027.018.04s.034.042.052.062.034.044.053.065a.828.828,0,0,0,.1.078c.022.016.041.033.064.046a.776.776,0,0,0,.124.056c.021.008.041.019.062.025a.8.8,0,0,0,.21.03h3.9a.779.779,0,0,0,.712-.463Zm10.974-1.1H43.628v-7.012H42.07v15.581H40.512V210.7H38.953v7.791H37.4v-14.8a.779.779,0,0,0-1.491-.316l-2.91,6.549H30.832l3.232-6.869c0-.009.007-.016.01-.025a2.763,2.763,0,0,1,2.542-1.676h6.233a2.337,2.337,0,0,1,2.337,2.337Zm0,0" transform="translate(0 -173.302)" fill="#252b2b"/>
  <path id="Path_35" data-name="Path 35" d="M32,112h7.012v1.558H32Zm0,0" transform="translate(-28.884 -101.093)" fill="#252b2b"/>
  <path id="Path_36" data-name="Path 36" d="M32,144h7.012v1.558H32Zm0,0" transform="translate(-28.884 -129.977)" fill="#252b2b"/>
</svg>
