<svg xmlns="http://www.w3.org/2000/svg" width="43.664" height="47.805" viewBox="0 0 43.664 47.805">
  <g id="child" transform="translate(-11.178 -8)">
    <g id="Group_79" data-name="Group 79" transform="translate(11.178 8)">
      <g id="Group_78" data-name="Group 78">
        <path id="Path_129" data-name="Path 129" d="M227.412,290.432a3.052,3.052,0,1,0-3.052-3.052A3.056,3.056,0,0,0,227.412,290.432Zm0-4.7a1.652,1.652,0,1,1-1.651,1.652A1.653,1.653,0,0,1,227.412,285.729Z" transform="translate(-205.482 -257.78)" fill="#252b2b"/>
        <path id="Path_130" data-name="Path 130" d="M352.945,10.116a5.058,5.058,0,1,0-5.058-5.058A5.064,5.064,0,0,0,352.945,10.116Zm0-8.716a3.658,3.658,0,1,1-3.657,3.658A3.662,3.662,0,0,1,352.945,1.4Z" transform="translate(-317.476)" fill="#252b2b"/>
        <path id="Path_131" data-name="Path 131" d="M329.985,121.814a.7.7,0,0,0-.7.7V132.1a.453.453,0,0,1-.452.452h-1.709V120.188a.7.7,0,0,0-1.4,0v29.677a.453.453,0,0,1-.452.452h-1.628a.453.453,0,0,1-.452-.452V138.724a.7.7,0,1,0-1.4,0v11.141a.453.453,0,0,1-.452.452h-1.628a.453.453,0,0,1-.452-.452V120.188a.7.7,0,0,0-1.4,0v12.362h-1.709a.453.453,0,0,1-.452-.452V120.186a4.176,4.176,0,0,1,4.171-4.171h5.245a4.176,4.176,0,0,1,4.171,4.171.7.7,0,0,0,1.4,0,5.578,5.578,0,0,0-5.572-5.572h-5.246a5.578,5.578,0,0,0-5.572,5.572V132.1a1.855,1.855,0,0,0,1.853,1.852h1.709v15.915a1.855,1.855,0,0,0,1.853,1.853h1.628a1.844,1.844,0,0,1,2.305,0h1.628a1.855,1.855,0,0,0,1.853-1.853V133.95h1.709a1.855,1.855,0,0,0,1.853-1.853v-9.583A.7.7,0,0,0,329.985,121.814Z" transform="translate(-287.021 -103.913)" fill="#252b2b"/>
        <path id="Path_132" data-name="Path 132" d="M51.039,55.964a5.058,5.058,0,1,0-5.058-5.058A5.064,5.064,0,0,0,51.039,55.964Zm0-8.716a3.658,3.658,0,1,1-3.657,3.658A3.662,3.662,0,0,1,51.039,47.249Z" transform="translate(-43.759 -41.567)" fill="#252b2b"/>
        <path id="Path_133" data-name="Path 133" d="M31.762,161.237H27.156a4.983,4.983,0,0,0-4.978,4.978v10.46a1.714,1.714,0,0,0,1.712,1.712h.021l-.485,4.412a.7.7,0,0,0,.7.777h1.183v8.7a1.714,1.714,0,0,0,1.712,1.712h1.429a1.7,1.7,0,0,0,1.012-.334,1.7,1.7,0,0,0,1.012.334H31.9a1.714,1.714,0,0,0,1.712-1.712v-3.867a.7.7,0,1,0-1.4,0v3.867a.312.312,0,0,1-.312.312H30.471a.312.312,0,0,1-.312-.312V184.8a.7.7,0,0,0-1.4,0v7.48a.312.312,0,0,1-.312.312H27.018a.312.312,0,0,1-.312-.312v-8.7h5.506v2.592a.7.7,0,0,0,1.4,0v-2.592h1.182a.7.7,0,0,0,.7-.777l-.485-4.412h.021a1.714,1.714,0,0,0,1.712-1.712V166.215A4.983,4.983,0,0,0,31.762,161.237Zm3.577,15.437h0a.312.312,0,0,1-.312.312h-.175L33.57,165.318a.7.7,0,0,0-1.392.153l1.835,16.7H24.9l1.835-16.7a.7.7,0,0,0-1.392-.153l-1.282,11.667H23.89a.312.312,0,0,1-.312-.311V166.215a3.581,3.581,0,0,1,3.577-3.577h4.606a3.581,3.581,0,0,1,3.577,3.577Z" transform="translate(-22.178 -146.182)" fill="#252b2b"/>
        <path id="Path_134" data-name="Path 134" d="M192.7,324.752a1.865,1.865,0,0,0-1.309.591l-2.612,2.781h-2.7l-2.612-2.781a1.877,1.877,0,0,0-2.737,2.57l3.028,3.225V340.4a1.832,1.832,0,0,0,1.83,1.83h3.684a1.832,1.832,0,0,0,1.83-1.83v-3.843a.7.7,0,1,0-1.4,0V340.4a.43.43,0,0,1-.429.429h-1.175v-5.841a.7.7,0,1,0-1.4,0v5.841h-1.109a.43.43,0,0,1-.429-.429V330.86a.7.7,0,0,0-.19-.479l-3.218-3.427a.476.476,0,1,1,.695-.652l2.819,3a.7.7,0,0,0,.511.221h3.31a.7.7,0,0,0,.511-.221l2.819-3a.476.476,0,1,1,.695.652l-3.218,3.427a.7.7,0,0,0-.19.479v3.367a.7.7,0,1,0,1.4,0v-3.089l3.028-3.225a1.877,1.877,0,0,0-1.427-3.161Z" transform="translate(-165.462 -294.429)" fill="#252b2b"/>
      </g>
    </g>
  </g>
</svg>
