<svg xmlns="http://www.w3.org/2000/svg" width="151.089" height="132.551" viewBox="0 0 151.089 132.551">
  <g id="love" transform="translate(0 -21.42)">
    <g id="Group_115" data-name="Group 115" transform="translate(31.787 66.522)">
      <g id="Group_114" data-name="Group 114">
        <path id="Path_208" data-name="Path 208" d="M129.375,184.878a2.9,2.9,0,0,0-4.079.426,5.391,5.391,0,0,1-8.748,0,2.9,2.9,0,1,0-4.5,3.653,11.178,11.178,0,0,0,17.756,0A2.9,2.9,0,0,0,129.375,184.878Z" transform="translate(-111.397 -184.231)" fill="#c95555"/>
      </g>
    </g>
    <g id="Group_117" data-name="Group 117" transform="translate(27.555 54.653)">
      <g id="Group_116" data-name="Group 116">
        <path id="Path_209" data-name="Path 209" d="M97.159,141.386a2.9,2.9,0,0,0-2.9,2.9V147.6a2.9,2.9,0,1,0,5.8,0v-3.313A2.9,2.9,0,0,0,97.159,141.386Z" transform="translate(-94.259 -141.386)" fill="#c95555"/>
      </g>
    </g>
    <g id="Group_119" data-name="Group 119" transform="translate(47.595 54.653)">
      <g id="Group_118" data-name="Group 118">
        <path id="Path_210" data-name="Path 210" d="M165.711,141.386a2.9,2.9,0,0,0-2.9,2.9V147.6a2.9,2.9,0,1,0,5.8,0v-3.313A2.9,2.9,0,0,0,165.711,141.386Z" transform="translate(-162.811 -141.386)" fill="#c95555"/>
      </g>
    </g>
    <g id="Group_121" data-name="Group 121" transform="translate(102.697 78.391)">
      <g id="Group_120" data-name="Group 120">
        <path id="Path_211" data-name="Path 211" d="M377.876,227.722a2.9,2.9,0,0,0-4.079.426,5.391,5.391,0,0,1-8.748,0,2.9,2.9,0,1,0-4.5,3.653,11.177,11.177,0,0,0,17.756,0A2.9,2.9,0,0,0,377.876,227.722Z" transform="translate(-359.898 -227.075)" fill="#c95555"/>
      </g>
    </g>
    <g id="Group_123" data-name="Group 123" transform="translate(100.2 66.523)">
      <g id="Group_122" data-name="Group 122">
        <path id="Path_212" data-name="Path 212" d="M345.659,184.231a2.9,2.9,0,0,0-2.9,2.9v3.313a2.9,2.9,0,1,0,5.8,0v-3.313A2.9,2.9,0,0,0,345.659,184.231Z" transform="translate(-342.759 -184.231)" fill="#c95555"/>
      </g>
    </g>
    <g id="Group_125" data-name="Group 125" transform="translate(112.16 66.523)">
      <g id="Group_124" data-name="Group 124">
        <path id="Path_213" data-name="Path 213" d="M414.211,184.231a2.9,2.9,0,0,0-2.9,2.9v3.313a2.9,2.9,0,1,0,5.8,0v-3.313A2.9,2.9,0,0,0,414.211,184.231Z" transform="translate(-411.311 -184.231)" fill="#c95555"/>
      </g>
    </g>
    <g id="Group_127" data-name="Group 127" transform="translate(0 21.42)">
      <g id="Group_126" data-name="Group 126">
        <path id="Path_214" data-name="Path 214" d="M144.93,109.322l-17.339-6.64a2.954,2.954,0,0,1-.269-.126c11.976-2.609,17.648-6.972,17.9-7.169a2.074,2.074,0,0,0,.788-1.939A263.065,263.065,0,0,1,143.5,59.854C143.5,44,130.033,31.1,113.475,31.1S83.446,44,83.446,59.854c0,4.344-.206,9.656-.541,14.686l-4.832,2.313L63.891,70.064c-.041-.019-.084-.034-.125-.051a22.861,22.861,0,0,0,1.278-5.927,7.017,7.017,0,0,0,5.128-6.653,6.828,6.828,0,0,0-2.529-5.27v-14.1a11.665,11.665,0,0,0-5.426-9.728,9.669,9.669,0,0,0-9.431-6.917H32.557c-10.981,0-19.914,8.553-19.914,19.066V52.163a6.828,6.828,0,0,0-2.529,5.27,7.017,7.017,0,0,0,5.128,6.653A23.668,23.668,0,0,0,25.286,81.473v5.857l-18.3,5.257A9.385,9.385,0,0,0,0,101.573v23.648a2.168,2.168,0,0,0,2.213,2.119h.315v24.512a2.168,2.168,0,0,0,2.213,2.119,2.168,2.168,0,0,0,2.213-2.119V127.34h8.217v24.512a2.215,2.215,0,0,0,4.426,0V115.315a9.072,9.072,0,0,0-1.646-5.2l-3.783-5.433a2.275,2.275,0,0,0-3.069-.588,2.064,2.064,0,0,0-.614,2.939l3.783,5.433a4.974,4.974,0,0,1,.9,2.853V123.1H4.426V101.573a5.146,5.146,0,0,1,3.829-4.927l7.6-2.182c2.646,10.607,12.694,18.35,24.29,18.35a25.743,25.743,0,0,0,11.835-2.855,7.37,7.37,0,0,0,5.866,2.855h.315v.3A18.957,18.957,0,0,0,68.274,129.7v3.456a.3.3,0,0,1-.216.286L59.8,136.081a9.415,9.415,0,0,0-6.7,8.9v6.87a2.215,2.215,0,0,0,4.426,0v-6.87A5.161,5.161,0,0,1,61.2,140.1l2.428-.775a17.822,17.822,0,0,0,28.887,0l2.427.775a5.162,5.162,0,0,1,3.674,4.88v6.87a2.215,2.215,0,0,0,4.426,0v-6.87a9.414,9.414,0,0,0-6.7-8.9l-8.256-2.635a.3.3,0,0,1-.216-.286V129.7a19.3,19.3,0,0,0,9.37-11.437,22.951,22.951,0,0,0,16.232,6.652,22.354,22.354,0,0,0,21.362-14.9l8.448,3.235a5.126,5.126,0,0,1,3.377,4.776v9.911h-8.217v-2.723a2.215,2.215,0,0,0-4.426,0v26.631a2.215,2.215,0,0,0,4.426,0v-19.67h5.688v19.67a2.215,2.215,0,0,0,4.426,0v-19.67h.315a2.265,2.265,0,0,0,1.565-.62,2.074,2.074,0,0,0,.648-1.5v-12.03A9.347,9.347,0,0,0,144.93,109.322ZM87.873,59.854c0-13.516,11.485-24.512,25.6-24.512s25.6,11,25.6,24.512a266.573,266.573,0,0,0,2.371,32.909c-1.983,1.242-7.061,3.978-15.645,5.776V95.167a24.868,24.868,0,0,0,3.359-2.185,23.886,23.886,0,0,0,8.665-13.291,23.055,23.055,0,0,0,.619-5.311c0-11.977-9.047-13.7-17.8-15.359-5.567-1.058-11.323-2.152-15.908-5.663A2.293,2.293,0,0,0,102.4,53.1a2.113,2.113,0,0,0-1.254,1.91c0,.056-.1,5.632-8.438,7.628a2.115,2.115,0,0,0-1.61,2.57,2.222,2.222,0,0,0,2.684,1.542c6.982-1.671,9.83-5.421,10.992-8.239,4.8,2.723,10.176,3.745,15.014,4.664,9.351,1.777,14.231,3.083,14.231,11.2a18.988,18.988,0,0,1-.509,4.374,19.652,19.652,0,0,1-7.131,10.933,21.271,21.271,0,0,1-24.862.686,23.865,23.865,0,0,0-6.059-8.942V71.96a2.1,2.1,0,0,0-1.05-1.8,2.3,2.3,0,0,0-2.153-.093l-4.779,2.287C87.739,67.939,87.873,63.743,87.873,59.854Zm3.16,15.534v7.669l-8.01-3.834Zm-25.918,0,8.01,3.834-8.01,3.834ZM53.1,98.59V100.6a6.842,6.842,0,0,0-2.529,5.25,21.143,21.143,0,0,1-10.43,2.723c-9.627,0-17.956-6.486-20.04-15.333l5.468-1.571A14.731,14.731,0,0,0,40.144,103.13a14.959,14.959,0,0,0,13.173-7.66A22.827,22.827,0,0,0,53.1,98.59ZM29.713,88.9V83.994a25.948,25.948,0,0,0,20.86,0v4.911a10.227,10.227,0,0,1-10.43,9.986,10.228,10.228,0,0,1-10.43-9.959C29.714,88.922,29.713,88.912,29.713,88.9Zm10.43-6.958c-11.329,0-20.545-8.824-20.545-19.67a2.168,2.168,0,0,0-2.213-2.119,2.726,2.726,0,1,1,0-5.446h5.057a2.207,2.207,0,0,0,2.1-1.449l2.031-5.835c5.086-.11,20.853-.794,29.731-5.045a2.078,2.078,0,0,0,.99-2.843,2.26,2.26,0,0,0-2.969-.948c-9.526,4.56-29.158,4.618-29.355,4.618a2.207,2.207,0,0,0-2.1,1.449l-2.024,5.814H17.385c-.106,0-.211,0-.315.008V40.486c0-8.176,6.948-14.828,15.488-14.828H52.787a5.267,5.267,0,0,1,5.28,4.336,2.122,2.122,0,0,0,1.1,1.513,7.519,7.519,0,0,1,4.051,6.558V50.479c-.1,0-.21-.008-.315-.008H60.373a2.121,2.121,0,1,0,0,4.238H62.9a2.726,2.726,0,1,1,0,5.446,2.168,2.168,0,0,0-2.213,2.119C60.688,73.121,51.472,81.945,40.144,81.945ZM55,88.906V81.473a24.612,24.612,0,0,0,5.688-5.63v5.589a23.919,23.919,0,0,0-5.7,8.064C54.993,89.3,55,89.1,55,88.906Zm33.1,49.011a13.317,13.317,0,0,1-20.053,0l1.411-.45A4.556,4.556,0,0,0,72.7,133.16v-1.689a20.661,20.661,0,0,0,10.746,0v1.689a4.555,4.555,0,0,0,3.242,4.307Zm7.674-29.342a2.168,2.168,0,0,0-2.213,2.119V112.8c0,.018,0,.037,0,.055v.259c0,8.176-6.948,14.828-15.488,14.828s-15.487-6.652-15.487-14.828v-2.421a2.168,2.168,0,0,0-2.213-2.119H57.844A2.789,2.789,0,0,1,55,105.853a2.674,2.674,0,0,1,1.429-2.339,2.183,2.183,0,0,0,.524-.412c5.471-.152,23.206-1.137,34.862-7.514a2.071,2.071,0,0,0,.824-2.891,2.267,2.267,0,0,0-3.02-.789c-10.211,5.586-26.256,6.7-32.09,6.928V98.59a19.1,19.1,0,0,1,3.505-10.975,2.159,2.159,0,0,0,.7.673,2.3,2.3,0,0,0,2.153.093l14.182-6.789L92.256,88.38a2.3,2.3,0,0,0,2.153-.093,2.164,2.164,0,0,0,.7-.673A19.1,19.1,0,0,1,98.619,98.59v3.093a2.1,2.1,0,0,0,1.1,1.831,2.674,2.674,0,0,1,1.429,2.339,2.789,2.789,0,0,1-2.844,2.723Zm17.7,12.1a18.254,18.254,0,0,1-15.121-7.868,7.126,7.126,0,0,0,7.22-6.96,6.843,6.843,0,0,0-2.529-5.251V98.59a22.821,22.821,0,0,0-.142-2.541,25.74,25.74,0,0,0,10.572,2.239,26,26,0,0,0,7.9-1.237v3.1a6.937,6.937,0,0,0,4.57,6.463l4.773,1.828A17.929,17.929,0,0,1,113.475,120.681Z" transform="translate(0 -21.42)" fill="#c95555"/>
      </g>
    </g>
    <g id="Group_129" data-name="Group 129" transform="translate(68.465 113.998)">
      <g id="Group_128" data-name="Group 128">
        <path id="Path_215" data-name="Path 215" d="M257.91,356.257a2.9,2.9,0,0,0-4.079.426,5.391,5.391,0,0,1-8.748,0,2.9,2.9,0,1,0-4.5,3.653,11.178,11.178,0,0,0,17.756,0A2.9,2.9,0,0,0,257.91,356.257Z" transform="translate(-239.932 -355.61)" fill="#c95555"/>
      </g>
    </g>
    <g id="Group_131" data-name="Group 131" transform="translate(67.675 105.133)">
      <g id="Group_130" data-name="Group 130">
        <circle id="Ellipse_2" data-name="Ellipse 2" cx="2.9" cy="2.9" r="2.9" fill="#c95555"/>
      </g>
    </g>
    <g id="Group_133" data-name="Group 133" transform="translate(82.584 105.133)">
      <g id="Group_132" data-name="Group 132">
        <circle id="Ellipse_3" data-name="Ellipse 3" cx="2.9" cy="2.9" r="2.9" fill="#c95555"/>
      </g>
    </g>
  </g>
</svg>
