<svg xmlns="http://www.w3.org/2000/svg" width="181.03" height="257.464" viewBox="0 0 181.03 257.464">
  <g id="Group_150" data-name="Group 150" transform="translate(-100.817 -126.362)">
    <g id="Group_141" data-name="Group 141" transform="translate(-10 3)">
      <g id="pin" transform="translate(110.817 123.362)">
        <path id="Path_218" data-name="Path 218" d="M166.515,0A90.586,90.586,0,0,0,76,90.515a89.257,89.257,0,0,0,13.578,47.521l70.8,115.866a7.147,7.147,0,0,0,5.131,3.47,7.509,7.509,0,0,0,7.694-3.621l71-116.923A89.27,89.27,0,0,0,257.03,90.515,90.586,90.586,0,0,0,166.515,0Zm0,135.772a45.257,45.257,0,1,1,45.257-45.257A45.2,45.2,0,0,1,166.515,135.772Z" transform="translate(-76)" fill="#c95555"/>
        <path id="Path_219" data-name="Path 219" d="M256,0V45.257a45.257,45.257,0,1,1,0,90.515V257.46a7.469,7.469,0,0,0,6.688-3.709l71-116.923a89.266,89.266,0,0,0,12.823-46.313A90.586,90.586,0,0,0,256,0Z" transform="translate(-165.485)" fill="#c95555"/>
      </g>
      <circle id="Ellipse_4" data-name="Ellipse 4" cx="76.5" cy="76.5" r="76.5" transform="translate(126 137)" fill="#fff"/>
    </g>
    <g id="Group_142" data-name="Group 142" transform="translate(-150 -195)">
      <path id="Path_241" data-name="Path 241" d="M15,58H79.955v8.768H15Z" transform="translate(295.91 384.903)" fill="#dad8db"/>
      <path id="Path_240" data-name="Path 240" d="M93.514,72.008a78.95,78.95,0,0,1,14.947-26.4L111.554,42H2l3.093,3.608a78.874,78.874,0,0,1,14.947,26.4,7.4,7.4,0,0,0,7.025,5.063H86.489A7.4,7.4,0,0,0,93.514,72.008Z" transform="translate(287 370.216)" fill="#eceaec"/>
      <path id="Path_239" data-name="Path 239" d="M0,0H5.851V34.1H0Z" transform="translate(297.568 378.333) rotate(-45)" fill="#a3a2a4"/>
      <path id="Path_238" data-name="Path 238" d="M6,55.111l6.576-10.96L25.728,41.96,32.3,35.384l10.96-2.192,10.96,2.192L62.991,31h10.96l10.96,6.576L87.1,44.152l8.066,6.05a3.7,3.7,0,0,1,1.094,1.311l1.8,3.6Z" transform="translate(291.768 357.104)" fill="#c85555"/>
      <path id="Path_234" data-name="Path 234" d="M112.513,43.414c-18.5,32.6-19.565,32.565-19.565,32.565l-70.287-.017L4.172,42.769l28.812.172,46.392.276Z" transform="translate(285.566 368.189)" fill="none" stroke="#707070" stroke-width="4"/>
      <path id="Path_235" data-name="Path 235" d="M-583.661,326.316l4.363-9.84,14.466-2.425,6.968-6.973,9.9-2.054,11.653,2.632,8.622-4.765h10.6l10.04,6.242,2.9,6.719,9.027,7.165v2.088" transform="translate(882.483 84.975)" fill="none" stroke="#707070" stroke-width="4"/>
      <path id="Path_236" data-name="Path 236" d="M-574.054,331.336c.073.4,0,6.455,0,6.455h69.781v-7.16l-71.147-.036" transform="translate(882.681 115.303)" fill="none" stroke="#707070" stroke-width="3"/>
      <path id="Path_237" data-name="Path 237" d="M-565.648,321.881c-.559-.394-19.7-19.542-19.7-19.542l7.147-6.978,20.682,21.179" transform="translate(880.158 76)" fill="none" stroke="#707070" stroke-width="1"/>
      <path id="Path_242" data-name="Path 242" d="M20,37h4.384v4.384H20Z" transform="translate(308.455 364.256)" fill="#fff"/>
      <path id="Path_243" data-name="Path 243" d="M24,35h4.384v4.384H24Z" transform="translate(313.223 361.872)" fill="#fff"/>
      <path id="Path_244" data-name="Path 244" d="M28,37h4.384v4.384H28Z" transform="translate(317.991 364.256)" fill="#fff"/>
      <path id="Path_245" data-name="Path 245" d="M32,35h4.384v4.384H32Z" transform="translate(322.759 361.872)" fill="#fff"/>
      <path id="Path_246" data-name="Path 246" d="M36,37h4.384v4.384H36Z" transform="translate(327.527 364.256)" fill="#fff"/>
    </g>
  </g>
</svg>
