<svg xmlns="http://www.w3.org/2000/svg" width="97.381" height="121.163" viewBox="0 0 97.381 121.163">
  <g id="profile" transform="translate(3.727)">
    <path id="Path_216" data-name="Path 216" d="M116.36,60.479A30.239,30.239,0,1,0,86.121,30.239,30.239,30.239,0,0,0,116.36,60.479Zm0-55.354A25.114,25.114,0,1,1,91.246,30.239,25.114,25.114,0,0,1,116.36,5.125Zm0,0" transform="translate(-71.396)" fill="#c95555"/>
    <path id="Path_217" data-name="Path 217" d="M44.964,331.313a47.729,47.729,0,0,0-34.441,14.377c-9.2,9.4-14.249,22.243-14.249,36.185a2.57,2.57,0,0,0,2.563,2.562H91.092a2.569,2.569,0,0,0,2.562-2.562c0-13.916-5.048-26.78-14.248-36.16A47.755,47.755,0,0,0,44.964,331.313Zm-43.513,48A45.77,45.77,0,0,1,14.161,349.3a42.7,42.7,0,0,1,30.778-12.838A42.7,42.7,0,0,1,75.716,349.3a45.645,45.645,0,0,1,12.712,30.009Zm0,0" transform="translate(0 -263.274)" fill="#c95555"/>
  </g>
</svg>
