<svg xmlns="http://www.w3.org/2000/svg" width="182.659" height="115.978" viewBox="0 0 182.659 115.978">
  <g id="group" transform="translate(0 -92.25)">
    <g id="Group_113" data-name="Group 113" transform="translate(0 92.25)">
      <path id="Path_207" data-name="Path 207" d="M157.974,143.282a20.854,20.854,0,1,0-23.926,0,36.132,36.132,0,0,0-12.324,7.228,46.755,46.755,0,0,0-16.914-9.216,26.419,26.419,0,1,0-27.323,0A47.145,47.145,0,0,0,60.754,150.4a36.425,36.425,0,0,0-12.18-7.084,20.854,20.854,0,1,0-23.926,0A36.6,36.6,0,0,0,0,177.905v2.385a.155.155,0,0,0,.145.145h44.2a48.61,48.61,0,0,0-.4,6.108V189a19.219,19.219,0,0,0,19.227,19.227h56.019A19.219,19.219,0,0,0,138.422,189v-2.458a48.607,48.607,0,0,0-.4-6.108h44.49a.155.155,0,0,0,.145-.145v-2.385A36.745,36.745,0,0,0,157.974,143.282Zm-27.034-17.095a15.071,15.071,0,1,1,15.36,15.071h-.578A15.049,15.049,0,0,1,130.941,126.187Zm-60.5-7.517a20.637,20.637,0,1,1,21.829,20.6H89.884A20.666,20.666,0,0,1,70.44,118.669Zm-49.008,7.517a15.071,15.071,0,1,1,15.36,15.071h-.578A15.073,15.073,0,0,1,21.432,126.187Zm23.926,48.43H5.855A30.88,30.88,0,0,1,36.286,147.04h.434a30.559,30.559,0,0,1,19.7,7.337A47.453,47.453,0,0,0,45.358,174.616ZM132.567,189a13.466,13.466,0,0,1-13.445,13.445H63.1A13.465,13.465,0,0,1,49.658,189v-2.458a41.516,41.516,0,0,1,40.225-41.454c.4.036.831.036,1.229.036s.831,0,1.229-.036a41.516,41.516,0,0,1,40.225,41.454Zm4.3-14.384a47.329,47.329,0,0,0-10.951-20.095,30.707,30.707,0,0,1,19.878-7.481h.434a30.88,30.88,0,0,1,30.431,27.576Z" transform="translate(0 -92.25)" fill="#c95555"/>
    </g>
  </g>
</svg>
