<svg xmlns="http://www.w3.org/2000/svg" width="163.285" height="203.161" viewBox="0 0 163.285 203.161">
  <g id="profile" transform="translate(3.727)">
    <path id="Path_216" data-name="Path 216" d="M136.825,101.408a50.7,50.7,0,1,0-50.7-50.7A50.7,50.7,0,0,0,136.825,101.408Zm0-92.815A42.11,42.11,0,1,1,94.715,50.7,42.109,42.109,0,0,1,136.825,8.594Zm0,0" transform="translate(-58.909)" fill="#2356c7"/>
    <path id="Path_217" data-name="Path 217" d="M77.916,331.313a80.03,80.03,0,0,0-57.75,24.107c-15.427,15.77-23.893,37.3-23.893,60.674a4.309,4.309,0,0,0,4.3,4.3H155.262a4.307,4.307,0,0,0,4.3-4.3c0-23.333-8.465-44.9-23.89-60.631A80.074,80.074,0,0,0,77.916,331.313ZM4.955,411.8c.946-19.422,8.465-37.169,21.313-50.318a71.594,71.594,0,0,1,51.607-21.527,71.589,71.589,0,0,1,51.605,21.527c12.891,13.15,20.369,30.9,21.314,50.318Zm0,0" transform="translate(0 -217.228)" fill="#2356c7"/>
  </g>
</svg>
