<svg xmlns="http://www.w3.org/2000/svg" width="165.277" height="119.96" viewBox="0 0 165.277 119.96">
  <g id="team" transform="translate(0 -70.193)">
    <path id="Path_253" data-name="Path 253" d="M371.613,210.319v1.871a21.328,21.328,0,0,0,1.094,6.744l4.237,12.712h8V202.321H379.61A8,8,0,0,0,371.613,210.319Z" transform="translate(-251.654 -89.476)" fill="#252b2b"/>
    <path id="Path_254" data-name="Path 254" d="M419.3,210.265l-4.511,15.789-21.326-18.66a5.332,5.332,0,0,1-5.331-5.331h0a8,8,0,0,1,8-8h18.66a5.332,5.332,0,0,1,5.331,5.332v5.011A21.32,21.32,0,0,1,419.3,210.265Z" transform="translate(-262.838 -83.885)" fill="#282d2d"/>
    <rect id="Rectangle_79" data-name="Rectangle 79" width="15.994" height="11.798" transform="translate(130.621 150.168)" fill="#e6af78"/>
    <path id="Path_255" data-name="Path 255" d="M404.645,322.832a21.151,21.151,0,0,0,15.994,0v-4.9H404.645v4.9Z" transform="translate(-274.023 -167.769)" fill="#d29b6e"/>
    <path id="Path_256" data-name="Path 256" d="M394.354,341.643l-12.861-3.674-8,5.307-8-5.307-12.86,3.675a8,8,0,0,0-5.8,7.69v19.49a2.666,2.666,0,0,0,2.666,2.666h47.984a2.666,2.666,0,0,0,2.666-2.666v-19.49A8,8,0,0,0,394.354,341.643Z" transform="translate(-234.877 -181.335)" fill="#d5dced"/>
    <path id="Path_257" data-name="Path 257" d="M426.493,382.672h-5.331l1.333-28.188h2.666Z" transform="translate(-285.207 -192.52)" fill="#afb9d2"/>
    <path id="Path_258" data-name="Path 258" d="M395.865,264.746h0a15.994,15.994,0,0,1-15.994-15.994v-3.123a5.333,5.333,0,0,1,1.561-3.77l4.834-4.834a5.269,5.269,0,0,1,3.87-1.567c8.521.269,16.064,2.094,20.187,6.121a5.263,5.263,0,0,1,1.536,3.776v3.4A16,16,0,0,1,395.865,264.746Z" transform="translate(-257.246 -111.914)" fill="#f0c087"/>
    <path id="Path_259" data-name="Path 259" d="M387.868,246.289a5.321,5.321,0,0,1,5.651-5.324c5.382.343,13.367,1.243,18.266,3.6a5.153,5.153,0,0,0-1.462-2.986c-4.123-4.027-11.666-5.852-20.187-6.121h0a5.27,5.27,0,0,0-3.87,1.567l-4.834,4.834a5.331,5.331,0,0,0-1.562,3.77v3.123a15.991,15.991,0,0,0,11.563,15.359,15.862,15.862,0,0,1-3.565-10.027v-7.793Z" transform="translate(-257.246 -111.914)" fill="#e6af78"/>
    <path id="Path_260" data-name="Path 260" d="M478.968,371.521a8,8,0,0,1,2.342-5.655L488.172,359a7.965,7.965,0,0,1,1.459,4.574v19.49a2.666,2.666,0,0,1-2.666,2.666h-8V371.521Z" transform="translate(-324.354 -195.581)" fill="#c7cfe2"/>
    <path id="Path_261" data-name="Path 261" d="M425.16,359.815h-2.666a1.333,1.333,0,0,1-1.333-1.333v-4h5.331v4A1.333,1.333,0,0,1,425.16,359.815Z" transform="translate(-285.207 -192.52)" fill="#959cb5"/>
    <g id="Group_184" data-name="Group 184" transform="translate(127.674 154.516)">
      <path id="Path_262" data-name="Path 262" d="M406.457,338.835l-4.518,3.451a1.6,1.6,0,0,1-2.374-.5l-4.053-7.4,1.631-2.489a1.066,1.066,0,0,1,1.617-.2Z" transform="translate(-395.512 -331.41)" fill="#c7cfe2"/>
      <path id="Path_263" data-name="Path 263" d="M429.419,338.835l4.518,3.451a1.6,1.6,0,0,0,2.374-.5l4.053-7.4-1.632-2.488a1.066,1.066,0,0,0-1.617-.2Z" transform="translate(-418.474 -331.411)" fill="#c7cfe2"/>
    </g>
    <path id="Path_264" data-name="Path 264" d="M49.112,237.837c-2.278-6.036-4.085-16.412-4.475-21.814-.742-10.28-8.49-18.66-18.962-18.66s-18.22,8.38-18.962,18.66c-.39,5.4-2.2,15.778-4.475,21.814a2.655,2.655,0,0,0,1.388,3.392,50.916,50.916,0,0,0,13.923,4.118H33.8a51.363,51.363,0,0,0,13.923-4.118A2.655,2.655,0,0,0,49.112,237.837Z" transform="translate(-1.394 -86.119)" fill="#252b2b"/>
    <path id="Path_265" data-name="Path 265" d="M80.593,241.23a2.655,2.655,0,0,0,1.387-3.392C79.7,231.8,77.9,221.426,77.506,216.024c-.742-10.28-8.49-18.66-18.962-18.66h-.079c-8.036.033-10.875,10.992-3.958,15.081a7.353,7.353,0,0,0,.682.364l6.059,32.539H66.67A51.4,51.4,0,0,0,80.593,241.23Z" transform="translate(-34.263 -86.119)" fill="#282d2d"/>
    <path id="Path_266" data-name="Path 266" d="M43.563,326.758l-8.627-4.313a5.331,5.331,0,0,1-2.947-4.769v-8h-16v8a5.331,5.331,0,0,1-2.947,4.769l-8.627,4.313A8,8,0,0,0,0,333.91v15.754a2.666,2.666,0,0,0,2.666,2.666H45.318a2.666,2.666,0,0,0,2.666-2.666V333.911A8,8,0,0,0,43.563,326.758Z" transform="translate(0 -162.178)" fill="#e6af78"/>
    <path id="Path_267" data-name="Path 267" d="M57.244,320.34a21.07,21.07,0,0,0,8.14-1.645,5.254,5.254,0,0,1-.143-1.02v-8h-16v8A5.249,5.249,0,0,1,49.1,318.7,21.176,21.176,0,0,0,57.244,320.34Z" transform="translate(-33.252 -162.177)" fill="#d29b6e"/>
    <path id="Path_268" data-name="Path 268" d="M43.563,356.141l-6.146-3.073a15.973,15.973,0,0,1-26.851,0l-6.146,3.073A8,8,0,0,0,0,363.294v15.754a2.666,2.666,0,0,0,2.666,2.666H45.318a2.666,2.666,0,0,0,2.666-2.666V363.294A8,8,0,0,0,43.563,356.141Z" transform="translate(0 -191.561)" fill="#d5dced"/>
    <path id="Path_269" data-name="Path 269" d="M41,271.187h0a16,16,0,0,1-15.862-13.924,2.688,2.688,0,0,1,1.425-2.771,22.253,22.253,0,0,0,4.718-3.187,15.393,15.393,0,0,0,3.647-4.8,2.639,2.639,0,0,1,3.006-1.461,45.928,45.928,0,0,1,18.094,9.271,2.579,2.579,0,0,1,.917,2.143A16,16,0,0,1,41,271.187Z" transform="translate(-17.006 -118.356)" fill="#f0c087"/>
    <path id="Path_270" data-name="Path 270" d="M56.027,254.315a45.926,45.926,0,0,0-18.094-9.271,2.639,2.639,0,0,0-3.006,1.461,15.26,15.26,0,0,1-2.436,3.556s0,.006,0,.009a14.3,14.3,0,0,1-1.21,1.235,22.239,22.239,0,0,1-4.718,3.187,2.689,2.689,0,0,0-1.425,2.771A16.02,16.02,0,0,0,38.573,271,11.671,11.671,0,0,1,33,260.524v-3.8c.606-.447,1.215-.893,1.828-1.44a21.223,21.223,0,0,0,3.812-4.5,40.259,40.259,0,0,1,13.894,7.559c.505.443,1.759,1.6,3.226,2.975a15.872,15.872,0,0,0,1.182-4.861A2.579,2.579,0,0,0,56.027,254.315Z" transform="translate(-17.006 -118.355)" fill="#e6af78"/>
    <path id="Path_271" data-name="Path 271" d="M1.625,369.859A7.98,7.98,0,0,0,0,374.664v15.754a2.666,2.666,0,0,0,2.666,2.666h8V379.652a5.332,5.332,0,0,0-2-4.163Z" transform="translate(0 -202.932)" fill="#c7cfe2"/>
    <path id="Path_272" data-name="Path 272" d="M199.23,334.3l-22.3-8.111-15.994,5.332-15.994-5.332-22.3,8.111a10.663,10.663,0,0,0-7.019,10.021v16.523a2.666,2.666,0,0,0,2.666,2.666h85.3a2.666,2.666,0,0,0,2.666-2.666V344.324A10.663,10.663,0,0,0,199.23,334.3Z" transform="translate(-78.292 -173.361)" fill="#2356c7"/>
    <path id="Path_273" data-name="Path 273" d="M242.023,359.226l-2.539,26.657h10.663l-2.539-26.657Z" transform="translate(-162.177 -195.731)" fill="#130f40"/>
    <path id="Path_274" data-name="Path 274" d="M249.013,351.7h-5.6a1.866,1.866,0,0,1-1.866-1.866v-7.128h9.329v7.128A1.866,1.866,0,0,1,249.013,351.7Z" transform="translate(-163.575 -184.546)" fill="#130f40"/>
    <path id="Path_275" data-name="Path 275" d="M359.964,359.855a10.651,10.651,0,0,1,2.869,7.265v16.523a2.666,2.666,0,0,1-2.666,2.666H346.839V377.4a10.662,10.662,0,0,1,3.123-7.54Z" transform="translate(-234.877 -196.157)" fill="#1b50c5"/>
    <path id="Path_276" data-name="Path 276" d="M223.808,97.856V75.524a5.332,5.332,0,0,0-5.331-5.331H186.487a21.326,21.326,0,0,0-21.326,21.326v6.337a26.655,26.655,0,0,0,1.368,8.43l.887,2.662a8,8,0,0,1,.41,2.529v1.368h53.315v-1.368a8,8,0,0,1,.41-2.529l.887-2.662A26.649,26.649,0,0,0,223.808,97.856Z" transform="translate(-111.846)" fill="#252b2b"/>
    <path id="Path_277" data-name="Path 277" d="M206.452,81.023a10.83,10.83,0,0,0,10.83,10.83h1.5l.724,20.993h29.6v-1.368a8,8,0,0,1,.41-2.529l.887-2.662a26.654,26.654,0,0,0,1.368-8.43V75.524a5.332,5.332,0,0,0-5.332-5.331H217.282A10.83,10.83,0,0,0,206.452,81.023Z" transform="translate(-139.808)" fill="#282d2d"/>
    <rect id="Rectangle_80" data-name="Rectangle 80" width="31.99" height="23.991" transform="translate(66.644 134.172)" fill="#e6af78"/>
    <path id="Path_278" data-name="Path 278" d="M206.451,277.4a31.8,31.8,0,0,0,31.989,0v-9.014H206.451V277.4Z" transform="translate(-139.807 -134.215)" fill="#d29b6e"/>
    <g id="Group_185" data-name="Group 185" transform="translate(61.313 148.393)">
      <path id="Path_279" data-name="Path 279" d="M211.262,322.213l-8.5,8.5a2.666,2.666,0,0,1-4.008-.273l-8.816-11.616,2.306-4.859a2.665,2.665,0,0,1,3.807-1.127Z" transform="translate(-189.936 -312.443)" fill="#1b50c5"/>
      <path id="Path_280" data-name="Path 280" d="M256,322.213l8.5,8.5a2.666,2.666,0,0,0,4.008-.273l8.816-11.616-2.306-4.859a2.665,2.665,0,0,0-3.807-1.127Z" transform="translate(-234.674 -312.443)" fill="#1b50c5"/>
    </g>
    <path id="Path_281" data-name="Path 281" d="M200.077,187.508h0a26.658,26.658,0,0,1-26.658-26.658v-3.123a5.333,5.333,0,0,1,1.561-3.77l2.208-2.208a5.331,5.331,0,0,0,1.561-3.77v-6.39A2.644,2.644,0,0,1,180.78,139c6.3-1.489,25.924-5.016,39.276,4.8a3.42,3.42,0,0,1,1.346,2.761v1.416a5.333,5.333,0,0,0,1.561,3.77l2.208,2.208a5.332,5.332,0,0,1,1.561,3.77v3.123A26.656,26.656,0,0,1,200.077,187.508Z" transform="translate(-117.438 -45.339)" fill="#f0c087"/>
    <path id="Path_282" data-name="Path 282" d="M220.056,143.811c-9.39-6.906-21.864-7.205-30.643-6.26a71.908,71.908,0,0,0-8.633,1.457,2.644,2.644,0,0,0-2.03,2.591v6.39a5.332,5.332,0,0,1-1.562,3.77l-2.208,2.208a5.332,5.332,0,0,0-1.562,3.77v3.123A26.648,26.648,0,0,0,196.855,187.3a26.547,26.547,0,0,1-7.442-18.447V149.373a5.335,5.335,0,0,1,4.689-5.3c6.4-.8,18.115-1.284,27.3,3.912v-1.416A3.419,3.419,0,0,0,220.056,143.811Z" transform="translate(-117.438 -45.349)" fill="#e6af78"/>
    <path id="Path_283" data-name="Path 283" d="M118.482,359.855a10.651,10.651,0,0,0-2.869,7.265v16.523a2.666,2.666,0,0,0,2.666,2.666h13.329V377.4a10.662,10.662,0,0,0-3.123-7.54Z" transform="translate(-78.292 -196.157)" fill="#1b50c5"/>
  </g>
</svg>
