<svg xmlns="http://www.w3.org/2000/svg" width="106.635" height="158.203" viewBox="0 0 106.635 158.203">
  <g id="employee" transform="translate(-83.447)">
    <path id="Path_40" data-name="Path 40" d="M195.9,8a26.4,26.4,0,0,0-26.4,26.4V45.08a8.417,8.417,0,0,1,6.726-2.2V41.567a1.8,1.8,0,0,1,1.928-1.794A47.272,47.272,0,0,0,206.6,32.131a1.8,1.8,0,0,1,2.3.281c6.716,7.219,6.675,6.939,6.675,7.882v2.584a7.988,7.988,0,0,1,6.725,1.966V34.4A26.4,26.4,0,0,0,195.9,8Z" transform="translate(-59.459 -5.528)" fill="#252b2b"/>
    <path id="Path_41" data-name="Path 41" d="M175.674,34.4A26.4,26.4,0,0,1,198.988,8.186,26.365,26.365,0,0,0,169.494,34.4V45.08a8.469,8.469,0,0,1,6.18-2.248Z" transform="translate(-59.459 -5.528)" fill="#5b5d6e"/>
    <path id="Path_42" data-name="Path 42" d="M318.492,117.553v14.52c0,.157-.008.313-.012.47a7.646,7.646,0,1,0,.012-14.99Z" transform="translate(-162.41 -81.16)" fill="#f0a479"/>
    <path id="Path_43" data-name="Path 43" d="M324.72,119.083a8.085,8.085,0,0,0-6.228-1.53v14.52c0,.157-.008.313-.012.47a8.079,8.079,0,0,0,6.239-1.529v-11.93h0Z" transform="translate(-162.41 -81.16)" fill="#e59770"/>
    <path id="Path_44" data-name="Path 44" d="M170.934,132.136V117.584c-4.485-.6-9.174,2.843-9.174,7.509a7.721,7.721,0,0,0,9.186,7.513C170.942,132.45,170.934,132.293,170.934,132.136Z" transform="translate(-54.115 -81.205)" fill="#f0a479"/>
    <path id="Path_45" data-name="Path 45" d="M170.934,131.125a7.539,7.539,0,0,1-2.994-6.031,7.327,7.327,0,0,1,2.994-5.8v-1.713c-4.485-.6-9.174,2.843-9.174,7.509a7.721,7.721,0,0,0,9.186,7.513c0-.157-.011-.314-.011-.471Z" transform="translate(-54.115 -81.206)" fill="#e59770"/>
    <path id="Path_46" data-name="Path 46" d="M231.076,216.807a20.364,20.364,0,0,1-11.08-3.13v10.817l11.033,13.618,11.033-13.618V213.384A19.282,19.282,0,0,1,231.076,216.807Z" transform="translate(-94.357 -147.451)" fill="#f0a479"/>
    <path id="Path_47" data-name="Path 47" d="M226.3,216.939a19.676,19.676,0,0,1-6.3-2.608v10.817l6.3,7.777V216.939Z" transform="translate(-94.357 -148.105)" fill="#e59770"/>
    <path id="Path_48" data-name="Path 48" d="M181.9,257.642l-29.187-11.3-11.033,13.618L130.65,246.339l-29.157,11.3s-10.8,4.438-10.8,16.744v48.278a3.6,3.6,0,0,0,3.6,3.6H189.1a3.6,3.6,0,0,0,3.6-3.6V274.387C192.7,262.08,181.9,257.642,181.9,257.642Z" transform="translate(-5.011 -170.223)" fill="#e4eaf8"/>
    <path id="Path_49" data-name="Path 49" d="M96.856,346.171V294.494a17.809,17.809,0,0,1,6.682-14.138l-2.045.793s-10.8,4.438-10.8,16.744v48.278a3.6,3.6,0,0,0,3.6,3.6h6.158A3.6,3.6,0,0,1,96.856,346.171Z" transform="translate(-5.011 -193.729)" fill="#d8dce5"/>
    <path id="Path_50" data-name="Path 50" d="M223.943,82.723a1.8,1.8,0,0,0-2.3-.281,47.271,47.271,0,0,1-28.453,7.642,1.8,1.8,0,0,0-1.928,1.793v15.774c0,10.138,7.944,19.4,19.959,19.4a19.42,19.42,0,0,0,19.4-19.4V90.6C230.618,89.662,230.658,89.941,223.943,82.723Z" transform="translate(-74.501 -56.766)" fill="#f0a479"/>
    <path id="Path_51" data-name="Path 51" d="M197.441,125.386V107.9a40.932,40.932,0,0,1-4.252-.078,1.8,1.8,0,0,0-1.928,1.794v15.774c0,10.138,7.944,19.4,19.959,19.4a19.456,19.456,0,0,0,2.809-.206A19.426,19.426,0,0,1,197.441,125.386Z" transform="translate(-74.501 -74.5)" fill="#e59770"/>
    <g id="Group_46" data-name="Group 46" transform="translate(115.116 76.116)">
      <path id="Path_52" data-name="Path 52" d="M269.025,266.955l8.25-16.535-10.539-4.081L255.7,259.957l10.757,7.639A1.74,1.74,0,0,0,269.025,266.955Z" transform="translate(-234.147 -246.339)" fill="#d8dce5"/>
      <path id="Path_53" data-name="Path 53" d="M194.188,266.955l-8.25-16.535,10.539-4.081,11.033,13.618L196.753,267.6A1.74,1.74,0,0,1,194.188,266.955Z" transform="translate(-185.938 -246.339)" fill="#d8dce5"/>
    </g>
    <path id="Path_54" data-name="Path 54" d="M241.824,368.025l-7.081-41.914h-8.265L219.4,368.025a1.823,1.823,0,0,0,.421,1.46h0L229.6,380.26a1.371,1.371,0,0,0,2.031,0l9.776-10.774h0A1.825,1.825,0,0,0,241.824,368.025Z" transform="translate(-93.931 -225.346)" fill="#f868a5"/>
    <g id="Group_47" data-name="Group 47" transform="translate(125.448 89.735)">
      <path id="Path_55" data-name="Path 55" d="M238.222,290.423v-.009l-.006,0-.007,0v.009l-7.824,5.557,3.7,5.566h8.264l3.7-5.566Z" transform="translate(-226.984 -290.414)" fill="#f868a5"/>
      <path id="Path_56" data-name="Path 56" d="M226,369.485a1.822,1.822,0,0,1-.421-1.46l7.081-41.914h-6.18L219.4,368.025a1.822,1.822,0,0,0,.421,1.46l9.776,10.774a1.371,1.371,0,0,0,2.031,0l2.074-2.286Z" transform="translate(-219.378 -315.081)" fill="#e9458b"/>
    </g>
    <path id="Path_57" data-name="Path 57" d="M241.3,292.612l-3.084-2.19v-.01l-.007,0-.007,0v.01l-7.824,5.556,3.7,5.566h6.18l-3.2-4.822a.922.922,0,0,1,.234-1.262Z" transform="translate(-101.535 -200.678)" fill="#e9458b"/>
    <path id="Path_58" data-name="Path 58" d="M187.764,122a2.317,2.317,0,0,0,2.317-2.317V104.01c0-13.7-11.732-18.682-12.231-18.888l-.044-.018L150.1,74.374v-6.5a21.714,21.714,0,0,0,8.218-14.284,10.031,10.031,0,0,0,5.893-2.4,9.839,9.839,0,0,0,1.026-13.883V28.722a28.721,28.721,0,1,0-57.443,0v8.81a9.3,9.3,0,0,0-2.389,6.2,9.82,9.82,0,0,0,3.417,7.456,10.026,10.026,0,0,0,5.89,2.4A21.485,21.485,0,0,0,123.4,68.219v6.155L95.722,85.1l-.044.017c-.5.205-12.231,5.186-12.231,18.888v48.278a5.921,5.921,0,0,0,5.915,5.915h22.079a2.317,2.317,0,0,0,0-4.635h-4.986V107.93a2.317,2.317,0,1,0-4.635,0v45.637H89.362a1.281,1.281,0,0,1-1.28-1.28V104.009a16.058,16.058,0,0,1,9.345-14.595l16.634-6.449,7.308,14.647h0A4.058,4.058,0,0,0,125,99.859a5.252,5.252,0,0,0,3.318-1.439l1.867,2.81-6.928,40.931c0,.023-.007.046-.011.07a4.155,4.155,0,0,0,1,3.334l7.275,8h-9.268a2.317,2.317,0,0,0,0,4.635h61.911a5.921,5.921,0,0,0,5.915-5.915V130.5a2.317,2.317,0,0,0-4.635,0v21.788a1.281,1.281,0,0,1-1.279,1.28H171.71V107.93a2.317,2.317,0,1,0-4.635,0v45.637H141.99l7.275-8a4.155,4.155,0,0,0,1-3.333c0-.023-.007-.047-.011-.07l-6.929-40.931,1.867-2.81a5.256,5.256,0,0,0,3.318,1.439,4.058,4.058,0,0,0,3.632-2.246h0l7.308-14.646L176.1,89.414a16.058,16.058,0,0,1,9.348,14.6v15.675A2.317,2.317,0,0,0,187.764,122ZM161.187,47.674a5.4,5.4,0,0,1-2.676,1.232V38.562a5.218,5.218,0,0,1,2.676,9.112ZM112.428,28.722a24.086,24.086,0,1,1,48.172,0V34.3a10.3,10.3,0,0,0-2.089-.4c0-2.236.019-1.8-7.3-9.67a4.123,4.123,0,0,0-5.264-.642,44.68,44.68,0,0,1-27.01,7.271,4.121,4.121,0,0,0-4.3,3.1,11.457,11.457,0,0,0-2.215.5V28.722Zm-2.39,15.012a5.5,5.5,0,0,1,4.48-5.055V48.907A5.236,5.236,0,0,1,110.039,43.734Zm9.116,7V35.511A49.523,49.523,0,0,0,148.119,27.7c3.355,3.6,5.172,5.492,5.758,6.21V50.731a17.363,17.363,0,0,1-34.722,0ZM136.8,72.446a21.757,21.757,0,0,0,8.668-1.806v4.5l-8.708,10.748-8.723-10.767V70.785A23.513,23.513,0,0,0,136.8,72.446ZM118.4,81.286l6.579-2.548,8.417,10.39-8.184,5.813Zm18.354,71.147-8.882-9.771,6.708-39.632h4.348l6.708,39.632Zm2.889-54.038h-5.779L132.1,95.735l4.656-3.307,4.656,3.307ZM148.3,94.94,140.1,89.12l8.415-10.387,6.591,2.553Z" transform="translate(0 0)"/>
  </g>
</svg>
