<svg xmlns="http://www.w3.org/2000/svg" width="165.802" height="155.294" viewBox="0 0 165.802 155.294">
  <g id="employee_1_" data-name="employee (1)" transform="translate(0 -16.224)">
    <path id="Path_59" data-name="Path 59" d="M211.651,24.224A20.831,20.831,0,0,0,190.82,45.055v8.423a6.64,6.64,0,0,1,5.306-1.733V50.707a1.42,1.42,0,0,1,1.521-1.415A37.293,37.293,0,0,0,220.1,43.262a1.419,1.419,0,0,1,1.815.221c5.3,5.7,5.266,5.475,5.266,6.218V51.74a6.3,6.3,0,0,1,5.305,1.551V45.055A20.83,20.83,0,0,0,211.651,24.224Z" transform="translate(-129.026 -5.409)" fill="#252b2b"/>
    <path id="Path_60" data-name="Path 60" d="M197.37,45.055a20.834,20.834,0,0,1,17.556-20.573,20.835,20.835,0,0,0-24.107,20.573v8.423a6.64,6.64,0,0,1,5.306-1.733V50.707a1.419,1.419,0,0,1,1.244-1.406V45.055Z" transform="translate(-129.026 -5.409)" fill="#5b5d6e"/>
    <path id="Path_61" data-name="Path 61" d="M302.984,106.7v11.456c0,.124-.006.247-.009.37a6.032,6.032,0,1,0,.009-11.826Z" transform="translate(-204.862 -61.121)" fill="#f0a479"/>
    <path id="Path_62" data-name="Path 62" d="M308.327,108.269a6.325,6.325,0,0,0-5.343-1.573v11.456c0,.124-.007.247-.009.37a6.321,6.321,0,0,0,5.352-1.572v-8.681Z" transform="translate(-204.862 -61.121)" fill="#e59770"/>
    <path id="Path_63" data-name="Path 63" d="M192.237,118.2v-11.48c-3.539-.472-7.238,2.243-7.238,5.924a6.092,6.092,0,0,0,7.247,5.927C192.243,118.447,192.237,118.324,192.237,118.2Z" transform="translate(-125.09 -61.154)" fill="#f0a479"/>
    <path id="Path_64" data-name="Path 64" d="M192.237,116.418a5.943,5.943,0,0,1-1.344-3.775,5.575,5.575,0,0,1,1.344-3.6v-2.324c-3.539-.472-7.238,2.243-7.238,5.924a6.092,6.092,0,0,0,7.247,5.927c0-.124-.009-.247-.009-.371v-1.781Z" transform="translate(-125.09 -61.154)" fill="#e59770"/>
    <path id="Path_65" data-name="Path 65" d="M237.579,181.534a16.07,16.07,0,0,1-8.742-2.469V187.6l8.7,10.744,8.7-10.744v-8.765A15.215,15.215,0,0,1,237.579,181.534Z" transform="translate(-154.732 -109.952)" fill="#f0a479"/>
    <path id="Path_66" data-name="Path 66" d="M235.314,181.87a15.715,15.715,0,0,1-6.477-2.323v8.534l6.477,7.995Z" transform="translate(-154.732 -110.434)" fill="#e59770"/>
    <path id="Path_67" data-name="Path 67" d="M203.459,212.559l-23.027-8.918-8.7,10.744-8.7-10.744-23,8.918s-8.517,3.5-8.517,13.21v38.089a2.838,2.838,0,0,0,2.838,2.838h74.8a2.838,2.838,0,0,0,2.838-2.838V225.769C211.976,216.06,203.459,212.559,203.459,212.559Z" transform="translate(-88.919 -126.725)" fill="#e4eaf8"/>
    <path id="Path_68" data-name="Path 68" d="M137.98,279.732V238.4a14.078,14.078,0,0,1,5.432-11.287l-3.392,1.315s-8.517,3.5-8.517,13.21v38.089a2.838,2.838,0,0,0,2.838,2.838h6.477A2.837,2.837,0,0,1,137.98,279.732Z" transform="translate(-88.918 -142.6)" fill="#d8dce5"/>
    <path id="Path_69" data-name="Path 69" d="M232.99,80.493a1.419,1.419,0,0,0-1.815-.221A37.294,37.294,0,0,1,208.727,86.3a1.419,1.419,0,0,0-1.521,1.415v12.445a15.527,15.527,0,0,0,31.05,0V86.712C238.256,85.968,238.288,86.189,232.99,80.493Z" transform="translate(-140.106 -43.151)" fill="#f0a479"/>
    <path id="Path_70" data-name="Path 70" d="M213.694,113.173V99.285a32.8,32.8,0,0,1-4.966.028,1.42,1.42,0,0,0-1.521,1.415v12.445a15.713,15.713,0,0,0,18.769,15A15.328,15.328,0,0,1,213.694,113.173Z" transform="translate(-140.107 -56.163)" fill="#e59770"/>
    <g id="Group_48" data-name="Group 48" transform="translate(65.802 76.916)">
      <path id="Path_71" data-name="Path 71" d="M266.226,219.907l6.509-13.045-8.315-3.22-8.7,10.744,8.487,6.027A1.373,1.373,0,0,0,266.226,219.907Z" transform="translate(-238.709 -203.642)" fill="#d8dce5"/>
      <path id="Path_72" data-name="Path 72" d="M209.708,219.907,203.2,206.862l8.315-3.22,8.7,10.744-8.487,6.027A1.373,1.373,0,0,1,209.708,219.907Z" transform="translate(-203.199 -203.642)" fill="#d8dce5"/>
    </g>
    <path id="Path_73" data-name="Path 73" d="M246.08,296.784l-5.586-33.06h-6.52l-5.586,33.06a1.437,1.437,0,0,0,.333,1.152h0l7.713,8.5a1.082,1.082,0,0,0,1.6,0l7.713-8.5h0A1.438,1.438,0,0,0,246.08,296.784Z" transform="translate(-154.419 -167.352)" fill="#df6398"/>
    <g id="Group_49" data-name="Group 49" transform="translate(73.954 87.66)">
      <path id="Path_74" data-name="Path 74" d="M235.206,297.936a1.437,1.437,0,0,1-.333-1.152l5.586-33.06h-6.488l-5.586,33.06a1.437,1.437,0,0,0,.333,1.152l7.713,8.5a1.082,1.082,0,0,0,1.6,0l2.442-2.692Z" transform="translate(-228.372 -255.012)" fill="#e9458b"/>
      <path id="Path_75" data-name="Path 75" d="M242.841,236.827v-.007l-.006,0-.005,0v.007l-6.172,4.384,2.918,4.391h6.52l2.918-4.391Z" transform="translate(-233.975 -236.82)" fill="#df6398"/>
    </g>
    <path id="Path_76" data-name="Path 76" d="M246.074,239.123l-3.233-2.3v-.007l-.005,0-.005,0v.007l-6.172,4.384,2.918,4.391h6.477l-2.5-3.77a.77.77,0,0,1,.2-1.054Z" transform="translate(-160.021 -149.159)" fill="#e9458b"/>
    <path id="Path_77" data-name="Path 77" d="M335.9,114.644a20.831,20.831,0,0,0-20.831,20.831V143.9a6.64,6.64,0,0,1,5.306-1.733v-1.038a1.42,1.42,0,0,1,1.521-1.415,37.293,37.293,0,0,0,22.448-6.029,1.419,1.419,0,0,1,1.815.221c5.3,5.7,5.266,5.475,5.266,6.218v2.038a6.3,6.3,0,0,1,5.305,1.551v-8.236A20.831,20.831,0,0,0,335.9,114.644Z" transform="translate(-213.04 -66.548)" fill="#252b2b"/>
    <path id="Path_78" data-name="Path 78" d="M321.619,135.475A20.834,20.834,0,0,1,339.175,114.9a20.835,20.835,0,0,0-24.107,20.573V143.9a6.64,6.64,0,0,1,5.306-1.733v-1.038a1.419,1.419,0,0,1,1.244-1.406v-4.245h0Z" transform="translate(-213.039 -66.548)" fill="#5b5d6e"/>
    <path id="Path_79" data-name="Path 79" d="M427.234,197.118v11.456c0,.124-.006.247-.009.37a6.032,6.032,0,1,0,.009-11.826Z" transform="translate(-288.876 -122.261)" fill="#f0a479"/>
    <path id="Path_80" data-name="Path 80" d="M432.577,198.691a6.325,6.325,0,0,0-5.343-1.573v11.456c0,.124-.006.247-.009.37a6.321,6.321,0,0,0,5.352-1.572v-8.681Z" transform="translate(-288.876 -122.261)" fill="#e59770"/>
    <path id="Path_81" data-name="Path 81" d="M316.486,208.622v-11.48c-3.539-.472-7.238,2.243-7.238,5.924a6.092,6.092,0,0,0,7.247,5.927C316.492,208.869,316.486,208.746,316.486,208.622Z" transform="translate(-209.104 -122.294)" fill="#f0a479"/>
    <path id="Path_82" data-name="Path 82" d="M316.486,206.838a5.943,5.943,0,0,1-1.344-3.775,5.575,5.575,0,0,1,1.344-3.6v-2.324c-3.539-.472-7.238,2.243-7.238,5.924a6.092,6.092,0,0,0,7.247,5.927c0-.124-.009-.247-.009-.371v-1.781Z" transform="translate(-209.104 -122.293)" fill="#e59770"/>
    <path id="Path_83" data-name="Path 83" d="M361.829,271.955a16.07,16.07,0,0,1-8.742-2.469v8.534l8.7,10.744,8.7-10.744v-8.765A15.217,15.217,0,0,1,361.829,271.955Z" transform="translate(-238.746 -171.092)" fill="#f0a479"/>
    <path id="Path_84" data-name="Path 84" d="M359.564,272.29a15.715,15.715,0,0,1-6.477-2.323V278.5l6.477,8Z" transform="translate(-238.746 -171.573)" fill="#e59770"/>
    <path id="Path_85" data-name="Path 85" d="M327.709,302.979l-23.027-8.918-8.7,10.744-8.7-10.744-23,8.918s-8.517,3.5-8.517,13.21v38.089a2.838,2.838,0,0,0,2.838,2.838h74.8a2.838,2.838,0,0,0,2.838-2.838V316.189C336.226,306.481,327.709,302.979,327.709,302.979Z" transform="translate(-172.933 -187.865)" fill="#e4eaf8"/>
    <path id="Path_86" data-name="Path 86" d="M262.23,370.154V328.827a14.078,14.078,0,0,1,5.432-11.287l-3.392,1.315s-8.517,3.5-8.517,13.21v38.089a2.838,2.838,0,0,0,2.838,2.838h6.477A2.838,2.838,0,0,1,262.23,370.154Z" transform="translate(-172.932 -203.74)" fill="#d8dce5"/>
    <path id="Path_87" data-name="Path 87" d="M357.24,170.914a1.419,1.419,0,0,0-1.815-.221,37.3,37.3,0,0,1-22.448,6.029,1.419,1.419,0,0,0-1.521,1.415v12.445a15.527,15.527,0,0,0,31.05,0V177.133C362.506,176.389,362.538,176.61,357.24,170.914Z" transform="translate(-224.12 -104.291)" fill="#f0a479"/>
    <path id="Path_88" data-name="Path 88" d="M337.943,203.594V189.706a32.8,32.8,0,0,1-4.966.029,1.42,1.42,0,0,0-1.521,1.415v12.445a15.713,15.713,0,0,0,18.769,15A15.328,15.328,0,0,1,337.943,203.594Z" transform="translate(-224.12 -117.303)" fill="#e59770"/>
    <g id="Group_50" data-name="Group 50" transform="translate(106.038 106.197)">
      <path id="Path_89" data-name="Path 89" d="M390.476,310.327l6.509-13.045-8.315-3.22-8.7,10.744,8.487,6.027A1.373,1.373,0,0,0,390.476,310.327Z" transform="translate(-362.959 -294.062)" fill="#d8dce5"/>
      <path id="Path_90" data-name="Path 90" d="M333.957,310.327l-6.509-13.045,8.315-3.22,8.7,10.744-8.487,6.027A1.373,1.373,0,0,1,333.957,310.327Z" transform="translate(-327.448 -294.062)" fill="#d8dce5"/>
    </g>
    <path id="Path_91" data-name="Path 91" d="M370.33,387.2l-5.586-33.06h-6.52l-5.586,33.06a1.437,1.437,0,0,0,.333,1.152h0l7.713,8.5a1.082,1.082,0,0,0,1.6,0l7.713-8.5h0A1.438,1.438,0,0,0,370.33,387.2Z" transform="translate(-238.433 -228.492)" fill="#df6398"/>
    <g id="Group_51" data-name="Group 51" transform="translate(114.19 116.941)">
      <path id="Path_92" data-name="Path 92" d="M359.457,388.357a1.437,1.437,0,0,1-.333-1.152l5.586-33.06h-6.488l-5.586,33.06a1.437,1.437,0,0,0,.333,1.152l7.713,8.5a1.082,1.082,0,0,0,1.6,0l2.442-2.691Z" transform="translate(-352.623 -345.432)" fill="#e9458b"/>
      <path id="Path_93" data-name="Path 93" d="M367.091,327.247v-.007l-.005,0-.005,0v.007l-6.172,4.384,2.917,4.391h6.52l2.917-4.391Z" transform="translate(-358.225 -327.24)" fill="#df6398"/>
    </g>
    <path id="Path_94" data-name="Path 94" d="M370.324,329.543l-3.233-2.3v-.007l-.005,0-.005,0v.007l-6.172,4.384,2.918,4.391H370.3l-2.5-3.77a.77.77,0,0,1,.2-1.054Z" transform="translate(-244.035 -210.299)" fill="#e9458b"/>
    <path id="Path_95" data-name="Path 95" d="M87.4,114.644a20.831,20.831,0,0,0-20.831,20.831V143.9a6.64,6.64,0,0,1,5.306-1.733v-1.038a1.42,1.42,0,0,1,1.521-1.415,37.293,37.293,0,0,0,22.448-6.029,1.419,1.419,0,0,1,1.815.221c5.3,5.7,5.266,5.475,5.266,6.218v2.038a6.3,6.3,0,0,1,5.305,1.551v-8.236A20.831,20.831,0,0,0,87.4,114.644Z" transform="translate(-45.013 -66.548)" fill="#252b2b"/>
    <path id="Path_96" data-name="Path 96" d="M73.119,135.475A20.834,20.834,0,0,1,90.675,114.9a20.835,20.835,0,0,0-24.107,20.573V143.9a6.64,6.64,0,0,1,5.306-1.733v-1.038a1.419,1.419,0,0,1,1.244-1.406v-4.245Z" transform="translate(-45.011 -66.548)" fill="#5b5d6e"/>
    <path id="Path_97" data-name="Path 97" d="M178.734,197.118v11.456c0,.124-.006.247-.009.37a6.032,6.032,0,1,0,.009-11.826Z" transform="translate(-120.848 -122.261)" fill="#f0a479"/>
    <path id="Path_98" data-name="Path 98" d="M184.078,198.691a6.325,6.325,0,0,0-5.343-1.573v11.456c0,.124-.006.247-.009.37a6.321,6.321,0,0,0,5.352-1.572v-8.681Z" transform="translate(-120.849 -122.261)" fill="#e59770"/>
    <path id="Path_99" data-name="Path 99" d="M67.986,208.622v-11.48c-3.539-.472-7.238,2.243-7.238,5.924a6.091,6.091,0,0,0,7.247,5.927C67.992,208.869,67.986,208.746,67.986,208.622Z" transform="translate(-41.076 -122.294)" fill="#f0a479"/>
    <path id="Path_100" data-name="Path 100" d="M67.986,206.838a5.943,5.943,0,0,1-1.344-3.775,5.575,5.575,0,0,1,1.344-3.6v-2.324c-3.539-.472-7.238,2.243-7.238,5.924a6.092,6.092,0,0,0,7.247,5.927c0-.124-.009-.247-.009-.371v-1.781Z" transform="translate(-41.076 -122.293)" fill="#e59770"/>
    <path id="Path_101" data-name="Path 101" d="M113.329,271.955a16.07,16.07,0,0,1-8.742-2.469v8.534l8.7,10.744L122,278.02v-8.765A15.216,15.216,0,0,1,113.329,271.955Z" transform="translate(-70.718 -171.092)" fill="#f0a479"/>
    <path id="Path_102" data-name="Path 102" d="M111.065,272.29a15.714,15.714,0,0,1-6.477-2.323V278.5l6.477,8Z" transform="translate(-70.719 -171.573)" fill="#e59770"/>
    <path id="Path_103" data-name="Path 103" d="M79.209,302.979l-23.027-8.918-8.7,10.744-8.7-10.744-23,8.918s-8.517,3.5-8.517,13.21v38.089a2.838,2.838,0,0,0,2.838,2.838h74.8a2.838,2.838,0,0,0,2.838-2.838V316.189C87.726,306.481,79.209,302.979,79.209,302.979Z" transform="translate(-4.905 -187.865)" fill="#e4eaf8"/>
    <path id="Path_104" data-name="Path 104" d="M13.731,370.154V328.827a14.078,14.078,0,0,1,5.432-11.287l-3.392,1.315s-8.517,3.5-8.517,13.21v38.089a2.838,2.838,0,0,0,2.838,2.838h6.477A2.838,2.838,0,0,1,13.731,370.154Z" transform="translate(-4.905 -203.74)" fill="#d8dce5"/>
    <path id="Path_105" data-name="Path 105" d="M108.741,170.914a1.419,1.419,0,0,0-1.815-.221,37.294,37.294,0,0,1-22.448,6.029,1.419,1.419,0,0,0-1.521,1.415v12.445a15.527,15.527,0,0,0,31.05,0V177.133C114.007,176.389,114.039,176.61,108.741,170.914Z" transform="translate(-56.093 -104.291)" fill="#f0a479"/>
    <path id="Path_106" data-name="Path 106" d="M89.444,203.594V189.706a32.8,32.8,0,0,1-4.966.029,1.42,1.42,0,0,0-1.521,1.415v12.445a15.713,15.713,0,0,0,18.769,15A15.328,15.328,0,0,1,89.444,203.594Z" transform="translate(-56.093 -117.303)" fill="#e59770"/>
    <g id="Group_52" data-name="Group 52" transform="translate(25.566 106.197)">
      <path id="Path_107" data-name="Path 107" d="M141.976,310.327l6.509-13.045-8.315-3.22-8.7,10.744,8.487,6.027A1.373,1.373,0,0,0,141.976,310.327Z" transform="translate(-114.459 -294.062)" fill="#d8dce5"/>
      <path id="Path_108" data-name="Path 108" d="M85.458,310.327l-6.509-13.045,8.315-3.22,8.7,10.744-8.487,6.027A1.373,1.373,0,0,1,85.458,310.327Z" transform="translate(-78.949 -294.062)" fill="#d8dce5"/>
    </g>
    <path id="Path_109" data-name="Path 109" d="M121.831,387.2l-5.586-33.06h-6.52l-5.586,33.06a1.437,1.437,0,0,0,.333,1.152h0l7.713,8.5a1.082,1.082,0,0,0,1.6,0l7.713-8.5h0A1.44,1.44,0,0,0,121.831,387.2Z" transform="translate(-70.405 -228.492)" fill="#df6398"/>
    <g id="Group_53" data-name="Group 53" transform="translate(33.718 116.941)">
      <path id="Path_110" data-name="Path 110" d="M110.957,388.357a1.437,1.437,0,0,1-.333-1.152l5.586-33.06h-6.488l-5.586,33.06a1.437,1.437,0,0,0,.333,1.152l7.713,8.5a1.082,1.082,0,0,0,1.6,0l2.442-2.691Z" transform="translate(-104.123 -345.432)" fill="#e9458b"/>
      <path id="Path_111" data-name="Path 111" d="M118.592,327.247v-.007l-.005,0-.005,0v.007l-6.172,4.384,2.917,4.391h6.52l2.917-4.391Z" transform="translate(-109.726 -327.24)" fill="#df6398"/>
    </g>
    <path id="Path_112" data-name="Path 112" d="M121.825,329.544l-3.233-2.3v-.007l-.005,0-.005,0v.007l-6.172,4.384,2.918,4.391H121.8l-2.5-3.77a.77.77,0,0,1,.2-1.054Z" transform="translate(-76.007 -210.299)" fill="#e9458b"/>
    <path id="Path_113" data-name="Path 113" d="M163.373,141.118a2.429,2.429,0,0,0,2.429-2.429V128.163c0-11.208-9.613-15.288-10.022-15.457l-.046-.018-21.476-8.317V99.947a17.736,17.736,0,0,0,6.413-11.015,8.476,8.476,0,0,0,4.51-1.986A8.363,8.363,0,0,0,146.2,75.319V68.765a23.241,23.241,0,0,0-38.356-17.674,8.349,8.349,0,0,0-1.88-5.054V39.484a23.26,23.26,0,1,0-46.519,0v6.724a7.923,7.923,0,0,0-1.878,4.862,23.153,23.153,0,0,0-9.161-4.8,2.429,2.429,0,1,0-1.237,4.7,18.407,18.407,0,0,1,13.7,17.794V72.4c-.1-.022-.442-.08-.455-.082a2.8,2.8,0,0,0-.58-1.642c-.622-.893-1.738-2.006-5.33-5.867a3.839,3.839,0,0,0-4.921-.6,34.706,34.706,0,0,1-20.559,5.659c-2.259-.132-3.67.86-4.271,2.487-.054.009-.654.13-.688.138V68.765A18.52,18.52,0,0,1,37.154,51.145a2.429,2.429,0,1,0-1.4-4.651,23.445,23.445,0,0,0-11.859,8.273,23.05,23.05,0,0,0-4.684,14V75.49a7.915,7.915,0,0,0-1.885,5.119,8.386,8.386,0,0,0,7.428,8.325,17.94,17.94,0,0,0,6.768,11.3v4.139L10.07,112.689l-.046.018C9.613,112.875,0,116.955,0,128.163v38.089a5.273,5.273,0,0,0,5.267,5.267h74.8a5.233,5.233,0,0,0,2.838-.837,5.231,5.231,0,0,0,2.838.837h74.8a5.273,5.273,0,0,0,5.267-5.267V150.023a2.429,2.429,0,1,0-4.857,0v16.228a.409.409,0,0,1-.409.409h-9.229V131.176a2.429,2.429,0,0,0-4.857,0v35.485H128.616l4.827-5.31a3.883,3.883,0,0,0,.94-3.116c0-.024-.007-.048-.011-.073L128.946,126.1l1-1.5.26.185a3.8,3.8,0,0,0,5.6-1.4h0l5.521-11.066L153.94,117.2a12.089,12.089,0,0,1,7,10.96v10.526A2.43,2.43,0,0,0,163.373,141.118ZM114.25,120.111l-4.768-9.555,4.168-1.614,5.962,7.359Zm-57.942-9.555-4.767,9.555-1.293-.918,0,0L46.169,116.3l5.961-7.358Zm-22.53,9.555-4.768-9.555,4.168-1.614,5.962,7.359-4.066,2.888-.006,0ZM62.741,80.4a3.492,3.492,0,0,1-2.318,3.515v-6.6A3.467,3.467,0,0,1,62.741,80.4ZM91.759,39.451c2.19,2.348,3.493,3.713,4.042,4.346V56.848a13.1,13.1,0,0,1-26.192,0V45.471A39.773,39.773,0,0,0,91.759,39.451Zm11.233,11.877a3.5,3.5,0,0,1-1.214,2.654,3.594,3.594,0,0,1-1.119.653V48.027A3.5,3.5,0,0,1,102.992,51.328Zm9,48.905v4.139l-20.649,8.005L88.71,96.823l1-1.5.26.185a3.8,3.8,0,0,0,5.6-1.4h0l4.1-8.216a8.526,8.526,0,0,0,5.543,3.053A17.655,17.655,0,0,0,111.992,100.233ZM82.9,119.337a17.293,17.293,0,0,0-3.96-4.4l2.746-16.227H84.1l2.748,16.235A17.313,17.313,0,0,0,82.9,119.337ZM53.786,99.949A17.757,17.757,0,0,0,60.2,88.94a8.517,8.517,0,0,0,5.772-3.351L70.218,94.1h0a3.8,3.8,0,0,0,5.6,1.4l.26-.185,1,1.5-2.632,15.549-20.662-8V99.949ZM82.925,74.58h0a17.953,17.953,0,0,0,6.238-1.133v2.445l-6.269,7.739-6.281-7.754v-2.33A19.584,19.584,0,0,0,82.925,74.58Zm22.062,9.332a3.5,3.5,0,0,1-2.334-3.3,3.587,3.587,0,0,1,2.334-3.161ZM91.776,90.83l-1.293-.918,0,0-4.073-2.893,2.079-2.566,3.882-4.791,4.177,1.618Zm-6.924,3.021H80.937l-.893-1.345L82.9,90.481l2.851,2.025ZM74.014,90.83l-4.768-9.555,4.168-1.614,5.962,7.359-4.066,2.888-.006,0ZM99.681,68.765v6.724a8.286,8.286,0,0,0-.96,1.419l-4.7-1.819V70.666a17.736,17.736,0,0,0,6.413-11.015,8.737,8.737,0,0,0,1.213-.233A23.12,23.12,0,0,0,99.681,68.765Zm-34.93-20.6v6.468a3.506,3.506,0,0,1-2.334-3.307A3.588,3.588,0,0,1,64.75,48.167Zm.237,11.486a17.94,17.94,0,0,0,6.768,11.3V75.09L66.8,77.011a8.325,8.325,0,0,0-1.073-1.693V68.765a23.2,23.2,0,0,0-1.96-9.345A8.684,8.684,0,0,0,64.987,59.653ZM41.451,127.99h2.415l5.159,30.479-6.366,7-6.366-7Zm3.165-4.858H40.7l-.893-1.345,2.851-2.025,2.851,2.025Zm84.783-20.4v2.446l-6.269,7.739-6.281-7.753v-2.33a19.588,19.588,0,0,0,6.311,1.032h0A17.956,17.956,0,0,0,129.4,102.729ZM123.162,99a12.967,12.967,0,0,1-13.318-12.874V74.753a39.792,39.792,0,0,0,22.15-6.02c2.19,2.348,3.493,3.713,4.042,4.346V86.129A12.9,12.9,0,0,1,123.162,99Zm17.733-15.088V77.308a3.505,3.505,0,0,1,0,6.607ZM122.94,50.363a18.423,18.423,0,0,1,18.4,18.4V72.4c-.11-.023-.414-.075-.455-.082a2.8,2.8,0,0,0-.58-1.642c-.638-.917-1.743-2.011-5.33-5.867a3.842,3.842,0,0,0-4.921-.6,34.772,34.772,0,0,1-20.74,5.65,3.82,3.82,0,0,0-4.091,2.5c-.054.009-.654.13-.688.138V68.765A18.423,18.423,0,0,1,122.94,50.363ZM64.3,39.484a18.4,18.4,0,1,1,36.8,0v3.632c-.11-.023-.414-.075-.455-.082a2.943,2.943,0,0,0-.688-1.793c-.65-.88-1.849-2.09-5.222-5.716a3.841,3.841,0,0,0-4.921-.6,34.693,34.693,0,0,1-20.936,5.64,3.86,3.86,0,0,0-3.895,2.505c-.054.009-.654.13-.688.138V39.484ZM22.181,80.609a3.587,3.587,0,0,1,2.334-3.161v6.468A3.506,3.506,0,0,1,22.181,80.609Zm7.192,5.521V74.753a39.808,39.808,0,0,0,22.15-6.02c2.169,2.326,3.493,3.712,4.042,4.346V86.129a13.1,13.1,0,0,1-26.192,0Zm13.316,17.732h0a17.948,17.948,0,0,0,6.238-1.133v2.446l-6.269,7.739-6.281-7.753v-2.33A19.579,19.579,0,0,0,42.689,103.862ZM4.858,166.252V128.163a12.089,12.089,0,0,1,7-10.958l12.6-4.886,5.522,11.066h0a3.8,3.8,0,0,0,5.6,1.4l.26-.185,1,1.5-5.426,32.058c0,.024-.008.048-.011.073a3.887,3.887,0,0,0,.941,3.117l4.826,5.309H19.353V131.176a2.429,2.429,0,0,0-4.857,0v35.485H5.267A.41.41,0,0,1,4.858,166.252Zm75.2.409H70.835V131.176a2.429,2.429,0,0,0-4.857,0v35.485H48.144l4.827-5.31a3.884,3.884,0,0,0,.94-3.116c0-.024-.007-.048-.011-.073L48.474,126.1l1-1.5.26.185a3.8,3.8,0,0,0,5.6-1.4h0l5.521-11.065L73.469,117.2a12.063,12.063,0,0,1,7,10.96v38.089A.409.409,0,0,1,80.063,166.661Zm19.762,0V131.176a2.429,2.429,0,0,0-4.857,0v35.485H85.739a.41.41,0,0,1-.409-.409V128.163a11.609,11.609,0,0,1,2.834-7.781,13.074,13.074,0,0,1,4.164-3.177l3.34-1.295,9.264-3.592,5.522,11.066h0a3.8,3.8,0,0,0,5.6,1.4l.26-.185,1,1.5-5.426,32.058c0,.024-.008.048-.011.073a3.887,3.887,0,0,0,.941,3.117l4.826,5.309H99.826Zm23.306-1.188-6.366-7,5.159-30.479h2.415L129.5,158.47Zm1.958-42.341h-3.915l-.893-1.345,2.851-2.025,2.851,2.025Zm6.924-3.021-5.371-3.815,5.961-7.358,4.177,1.618Z"/>
  </g>
</svg>
